<svg width="20" height="20" viewBox="0 0 20 20" fill="none" xmlns="http://www.w3.org/2000/svg">
    <path
        d="M19.2833 10.2947C19.0962 10.9554 18.7219 11.528 18.2303 11.9065C17.8377 12.2092 17.3918 12.3675 16.9534 12.3675C16.7883 12.3675 16.6268 12.3454 16.4672 12.3003C15.8875 12.1345 15.4178 11.674 15.1793 11.0366C14.961 10.4556 14.9463 9.77201 15.1334 9.11115C15.3224 8.45049 15.6967 7.87791 16.1865 7.49943C16.7259 7.08373 17.368 6.94006 17.9496 7.10557C18.5293 7.27143 19.0008 7.73189 19.2393 8.36928C19.4558 8.95033 19.4723 9.63389 19.2833 10.2947ZM7.01696 8.62486C7.70681 8.62486 8.36544 8.24088 8.82407 7.57088C9.24052 6.96342 9.46985 6.16775 9.46985 5.33006C9.46985 4.49162 9.24052 3.69596 8.82407 3.0885C8.3654 2.41869 7.70677 2.03467 7.01696 2.03467C6.32528 2.03467 5.66669 2.41865 5.20802 3.0885C4.79341 3.69596 4.56407 4.49162 4.56407 5.33006C4.56407 6.16775 4.79341 6.96342 5.20802 7.57088C5.66669 8.24088 6.32532 8.62486 7.01696 8.62486ZM12.9832 8.62486C13.6749 8.62486 14.3335 8.24088 14.7922 7.57088C15.2068 6.96342 15.4361 6.16775 15.4361 5.33006C15.4361 4.49162 15.2068 3.69596 14.7922 3.0885C14.3335 2.41869 13.6749 2.03467 12.9832 2.03467C12.2934 2.03467 11.6347 2.41865 11.1761 3.0885C10.7597 3.69596 10.5303 4.49162 10.5303 5.33006C10.5303 6.16775 10.7597 6.96342 11.1761 7.57088C11.6347 8.24088 12.2934 8.62486 12.9832 8.62486ZM4.86677 9.11158C4.67782 8.45057 4.30357 7.87799 3.81368 7.49947C3.27431 7.08377 2.6322 6.9401 2.0506 7.10561C1.46903 7.27147 0.999347 7.73193 0.760832 8.36932C0.544347 8.95033 0.527863 9.63393 0.716808 10.2948C0.903957 10.9555 1.27821 11.528 1.76986 11.9065C2.16247 12.2092 2.60829 12.3675 3.04677 12.3675C3.21005 12.3675 3.37333 12.3455 3.53111 12.3004C4.11267 12.1345 4.58236 11.674 4.82083 11.0367C5.03923 10.4556 5.05392 9.77205 4.86677 9.11158ZM13.5996 10.7226C12.5942 9.66584 11.3173 9.08428 10.0001 9.08428C8.68282 9.08428 7.40407 9.66584 6.40235 10.7226C5.44466 11.7304 4.77689 13.1287 4.52001 14.6608C4.35673 15.6381 4.65392 16.5787 5.33825 17.2412C6.05009 17.9307 6.98025 18.14 7.89025 17.8164C8.56357 17.576 9.27357 17.4542 10.0001 17.4542C10.7266 17.4542 11.4366 17.5761 12.1099 17.8164C12.3906 17.9162 12.6732 17.9655 12.9502 17.9655C13.5721 17.9655 14.1684 17.7182 14.6601 17.2412C15.3462 16.5788 15.6434 15.6381 15.4801 14.6608C15.2233 13.1287 14.5555 11.7303 13.5996 10.7226Z"
        fill="#E2E2E2" />
</svg>
    