<svg width="20" height="20" viewBox="0 0 20 20" fill="none" xmlns="http://www.w3.org/2000/svg">
    <path
        d="M18.3334 4.32503V14.3249C18.3334 15.1407 17.6754 15.8892 16.8675 15.9901L16.6092 16.0237C15.2433 16.2088 13.3192 16.7807 11.77 17.4367C11.2286 17.6638 10.6289 17.2516 10.6289 16.6545V4.9558C10.6289 4.64462 10.8038 4.35867 11.0787 4.20729C12.6029 3.37467 14.9101 2.63456 16.476 2.5H16.526C17.5255 2.5 18.3334 3.3158 18.3334 4.32503Z"
        fill="#E2E2E2" />
    <path
        d="M8.92978 4.20729C7.40554 3.37467 5.09836 2.63456 3.53248 2.5H3.47418C2.47468 2.5 1.66675 3.3158 1.66675 4.32503V14.3249C1.66675 15.1407 2.32475 15.8892 3.13268 15.9901L3.39088 16.0237C4.75687 16.2088 6.6809 16.7807 8.23013 17.4367C8.77153 17.6638 9.37122 17.2516 9.37122 16.6545V4.9558C9.37122 4.63621 9.20464 4.35867 8.92978 4.20729ZM4.17383 6.75561H6.04789C6.38938 6.75561 6.67258 7.04156 6.67258 7.38638C6.67258 7.73961 6.38938 8.01715 6.04789 8.01715H4.17383C3.83233 8.01715 3.54914 7.73961 3.54914 7.38638C3.54914 7.04156 3.83233 6.75561 4.17383 6.75561ZM6.67258 10.5402H4.17383C3.83233 10.5402 3.54914 10.2627 3.54914 9.90946C3.54914 9.56464 3.83233 9.27869 4.17383 9.27869H6.67258C7.01407 9.27869 7.29726 9.56464 7.29726 9.90946C7.29726 10.2627 7.01407 10.5402 6.67258 10.5402Z"
        fill="#E2E2E2" />
</svg>
    