<svg width="20" height="20" viewBox="0 0 20 20" fill="none" xmlns="http://www.w3.org/2000/svg">
    <g clip-path="url(#clip0_1048_4356)">
        <path
            d="M6.90909 8.58282V15.9425C6.90927 16.1019 6.85986 16.2575 6.7677 16.3876C6.67554 16.5177 6.5452 16.6159 6.39473 16.6686C5.95891 16.8218 5.433 16.9027 4.87321 16.9027C3.26314 16.9027 1.53141 16.242 1.53141 14.7913V5.37423C1.49522 4.72742 1.72083 3.58474 2.80422 2.96643C3.30703 2.67922 5.94736 0.981371 7.2733 0.12359C7.38969 0.0489341 7.524 0.0069266 7.66218 0.00196236C7.80036 -0.00300189 7.93734 0.0292596 8.05878 0.0953716C8.18022 0.161484 8.28166 0.259017 8.35249 0.377767C8.42333 0.496517 8.46095 0.632121 8.46141 0.770391V1.88535C8.46148 2.06608 8.39797 2.24107 8.28201 2.37969C8.16605 2.51831 8.00502 2.61173 7.82712 2.64358C7.64922 2.67543 7.46579 2.64369 7.30893 2.55392C7.15208 2.46415 7.0318 2.32206 6.96915 2.15254C5.77103 2.92254 4.00619 4.0529 3.56806 4.30315C3.17382 4.52876 3.08835 4.94302 3.07141 5.16786C3.07141 5.42042 3.12608 5.61909 3.22464 5.72766C3.49799 6.02565 4.4089 5.84008 5.40297 5.24332C6.35777 4.67044 11.0671 1.535 11.1141 1.50343C11.2301 1.42603 11.3649 1.38159 11.5043 1.37485C11.6436 1.36812 11.7821 1.39935 11.905 1.46521C12.028 1.53107 12.1307 1.62908 12.2023 1.74878C12.2739 1.86848 12.3116 2.00537 12.3114 2.14484V2.23262C12.3114 2.4898 12.1828 2.73004 11.9695 2.87326C11.9695 2.87326 8.70011 5.05544 8.41059 5.24101C7.30256 5.95404 6.90909 6.82876 6.90909 8.58282ZM18.4714 4.86679V14.8629C18.4713 14.9931 18.4382 15.1212 18.3752 15.2351C18.3122 15.349 18.2213 15.4451 18.1111 15.5144C18.1111 15.5144 13.622 19.0009 12.711 19.5546C12.2321 19.8464 11.6223 20.0004 10.9485 20.0004C9.34768 20.0004 7.69141 19.1341 7.69141 17.6858V8.13083C7.69141 8.12775 7.69372 8.12467 7.69372 8.12082C7.70912 7.55718 7.84079 6.75253 8.88876 5.97945C9.51708 5.5159 13.2593 2.96412 13.4179 2.85632C13.5335 2.77723 13.6686 2.73121 13.8085 2.72325C13.9483 2.71529 14.0877 2.74567 14.2116 2.81114C14.3355 2.8766 14.4391 2.97464 14.5113 3.09469C14.5836 3.21475 14.6216 3.35224 14.6214 3.49234V4.6073C14.6214 4.78479 14.5601 4.95683 14.4479 5.09432C14.3356 5.23181 14.1793 5.3263 14.0054 5.3618C13.8315 5.39731 13.6507 5.37165 13.4936 5.28916C13.3364 5.20668 13.2126 5.07243 13.143 4.90914C11.9487 5.72612 10.1955 6.92963 9.80275 7.21838C9.30687 7.5849 9.24065 7.82668 9.23218 8.13699C9.23372 8.36722 9.29609 8.54278 9.42237 8.65828C9.81507 9.01787 10.8723 8.86695 11.9149 8.24171C12.6864 7.77817 16.0113 5.21098 17.2263 4.2608C17.4596 4.08062 17.7738 4.04751 18.0387 4.1761C18.3036 4.30469 18.4714 4.57188 18.4714 4.86679ZM16.9314 8.29792L13.0814 11.2847V12.8248L16.9314 9.83792V8.29792Z"
            fill="#E2E2E2" />
    </g>
    <defs>
        <clipPath id="clip0_1048_4356">
            <rect width="20" height="20" fill="white" />
        </clipPath>
    </defs>
</svg>
    