<svg width="20" height="20" viewBox="0 0 20 20" fill="none" xmlns="http://www.w3.org/2000/svg">
    <path
        d="M0.589844 12.9297C1.35195 14.7484 2.80781 16.241 4.6875 17.0246V18.2031C4.6875 18.5265 4.95 18.789 5.27344 18.789H14.7266C15.05 18.789 15.3125 18.5265 15.3125 18.2031V17.0246C17.1922 16.241 18.648 14.7484 19.4102 12.9297H0.589844ZM19.4141 9.41404H0.585938C0.2625 9.41404 0 9.67654 0 9.99998C0 10.6008 0.0710938 11.1898 0.207031 11.7578H19.793C19.9289 11.1898 20 10.6008 20 9.99998C20 9.67654 19.7375 9.41404 19.4141 9.41404ZM6.07008 6.89869C5.84125 6.66986 5.84125 6.29889 6.07008 6.07006C6.48875 5.65135 6.48879 4.97369 6.07008 4.55494C5.19543 3.68029 5.19543 2.25721 6.07008 1.38256C6.29887 1.15373 6.66988 1.15373 6.89871 1.38256C7.12754 1.61139 7.12754 1.98236 6.89871 2.21119C6.48004 2.6299 6.48 3.30756 6.89871 3.72631C7.77336 4.60096 7.77336 6.02404 6.89871 6.89869C6.66992 7.12748 6.29887 7.12752 6.07008 6.89869ZM9.5857 6.89869C9.35687 6.66986 9.35687 6.29889 9.5857 6.07006C10.0044 5.65135 10.0044 4.97369 9.5857 4.55494C8.71105 3.68029 8.71105 2.25721 9.5857 1.38256C9.81449 1.15373 10.1855 1.15373 10.4143 1.38256C10.6432 1.61139 10.6432 1.98236 10.4143 2.21119C9.99566 2.6299 9.99562 3.30756 10.4143 3.72631C11.289 4.60096 11.289 6.02404 10.4143 6.89869C10.1855 7.12748 9.81449 7.12752 9.5857 6.89869ZM13.1013 6.89869C12.8725 6.66986 12.8725 6.29889 13.1013 6.07006C13.52 5.65139 13.52 4.97369 13.1013 4.55494C12.2267 3.68029 12.2267 2.25721 13.1013 1.38256C13.3301 1.15373 13.7011 1.15373 13.93 1.38256C14.1588 1.61139 14.1588 1.98236 13.93 2.21119C13.5113 2.62986 13.5112 3.30756 13.93 3.72631C14.8046 4.60096 14.8046 6.02404 13.93 6.89869C13.7012 7.12748 13.3301 7.12752 13.1013 6.89869Z"
        fill="#E2E2E2" />
</svg>
    