<svg width="20" height="20" viewBox="0 0 20 20" fill="none" xmlns="http://www.w3.org/2000/svg">
    <g clip-path="url(#clip0_1048_4364)">
        <path
            d="M19.8614 5.51963C19.8063 5.45478 19.7377 5.40268 19.6605 5.36691C19.5832 5.33115 19.4991 5.31258 19.414 5.31248H4.73256L3.57315 1.05703C3.53936 0.932972 3.46571 0.82347 3.36354 0.745399C3.26138 0.667329 3.13638 0.625022 3.0078 0.625H0.585935C0.262069 0.625 0 0.887069 0 1.21094C0 1.5348 0.262069 1.79687 0.585935 1.79687H2.56034L5.80459 13.6829C5.18967 13.9591 4.76561 14.562 4.76561 15.2734C4.76561 16.0837 5.31943 16.7608 6.0665 16.9634C5.9849 17.1659 5.93748 17.3857 5.93748 17.6171C5.93748 18.5864 6.72599 19.3749 7.69528 19.3749C8.66458 19.3749 9.45309 18.5864 9.45309 17.6171C9.45309 17.4107 9.41082 17.2154 9.34516 17.0312H14.2485C14.1828 17.2154 14.1406 17.4107 14.1406 17.6171C14.1406 18.5864 14.9291 19.3749 15.8984 19.3749C16.8677 19.3749 17.6562 18.5864 17.6562 17.6171C17.6562 16.6478 16.8677 15.8593 15.8984 15.8593H6.52341C6.20068 15.8593 5.93748 15.5967 5.93748 15.2734C5.93748 14.7276 6.64087 14.6125 6.52341 14.676C6.6406 14.676 7.03677 14.627 18.2993 13.5127C18.4276 13.5002 18.5482 13.4457 18.6423 13.3576C18.7365 13.2696 18.799 13.1529 18.82 13.0258L19.9919 5.99455C20.006 5.91066 20.0016 5.82472 19.979 5.74271C19.9565 5.66069 19.9164 5.58457 19.8614 5.51963ZM8.28122 17.6171C8.28122 17.9404 8.01802 18.2031 7.69528 18.2031C7.37255 18.2031 7.10935 17.9404 7.10935 17.6171C7.10935 17.2938 7.37255 17.0312 7.69528 17.0312C8.01802 17.0312 8.28122 17.2938 8.28122 17.6171ZM15.8984 18.2031C15.5756 18.2031 15.3124 17.9404 15.3124 17.6171C15.3124 17.2938 15.5756 17.0312 15.8984 17.0312C16.2211 17.0312 16.4843 17.2938 16.4843 17.6171C16.4843 17.9404 16.2211 18.2031 15.8984 18.2031ZM9.45309 10.5859C9.45309 10.9098 9.19102 11.1718 8.86715 11.1718C8.54329 11.1718 8.28122 10.9098 8.28122 10.5859V8.24216C8.28122 7.91829 8.54329 7.65622 8.86715 7.65622C9.19102 7.65622 9.45309 7.91829 9.45309 8.24216V10.5859ZM12.9687 10.5859C12.9687 10.9098 12.7066 11.1718 12.3828 11.1718C12.0589 11.1718 11.7968 10.9098 11.7968 10.5859V8.24216C11.7968 7.91829 12.0589 7.65622 12.3828 7.65622C12.7066 7.65622 12.9687 7.91829 12.9687 8.24216V10.5859ZM16.4843 10.5859C16.4843 10.9098 16.2222 11.1718 15.8984 11.1718C15.5745 11.1718 15.3124 10.9098 15.3124 10.5859V8.24216C15.3124 7.91829 15.5745 7.65622 15.8984 7.65622C16.2222 7.65622 16.4843 7.91829 16.4843 8.24216V10.5859Z"
            fill="#E2E2E2" />
        <path
            d="M17.6562 2.38282C17.6562 2.05895 17.3941 1.79688 17.0703 1.79688H16.141L16.3127 1.6252C16.5416 1.39633 16.5416 1.02552 16.3127 0.79665C16.0838 0.567783 15.713 0.567783 15.4841 0.79665L14.7265 1.55426L13.9689 0.79665C13.74 0.567783 13.3692 0.567783 13.1404 0.79665C12.9115 1.02552 12.9115 1.39633 13.1404 1.6252L13.312 1.79688H12.3828C12.0589 1.79688 11.7969 2.05895 11.7969 2.38282V4.14062H17.6562V2.38282ZM10.625 2.96875H6.52344C6.19957 2.96875 5.9375 3.23082 5.9375 3.55469V4.14062H10.625V2.96875Z"
            fill="#E2E2E2" />
    </g>
    <defs>
        <clipPath id="clip0_1048_4364">
            <rect width="20" height="20" fill="white" />
        </clipPath>
    </defs>
</svg>
    