<svg width="20" height="20" viewBox="0 0 20 20" fill="none" xmlns="http://www.w3.org/2000/svg">
    <path
        d="M17.985 7.379L17.08 3.757C16.969 3.312 16.569 3 16.11 3H3.891C3.432 3 3.032 3.312 2.92 3.757L2.015 7.379C2.005 7.418 2 7.459 2 7.5C2 8.878 3.065 10 4.375 10C5.136 10 5.815 9.621 6.25 9.033C6.685 9.621 7.364 10 8.125 10C8.886 10 9.565 9.621 10 9.033C10.435 9.621 11.113 10 11.875 10C12.637 10 13.315 9.621 13.75 9.033C14.185 9.621 14.863 10 15.625 10C16.935 10 18 8.878 18 7.5C18 7.459 17.995 7.418 17.985 7.379ZM15.625 11C14.944 11 14.297 10.792 13.75 10.412C12.656 11.173 11.094 11.173 10 10.412C8.906 11.173 7.344 11.173 6.25 10.412C5.703 10.792 5.056 11 4.375 11C3.884 11 3.421 10.885 3 10.689V16C3 16.552 3.448 17 4 17H8V13H12V17H16C16.552 17 17 16.552 17 16V10.689C16.579 10.885 16.116 11 15.625 11Z"
        fill="#E2E2E2" />
</svg>
    