<svg width="20" height="20" viewBox="0 0 20 20" fill="none" xmlns="http://www.w3.org/2000/svg">
    <path
        d="M12.1 6.15004C11.9143 6.15004 11.7363 6.07629 11.605 5.94501C11.4737 5.81373 11.4 5.63568 11.4 5.45003V4.40002H8.59994V5.45003C8.59994 5.63568 8.52618 5.81373 8.39491 5.94501C8.26363 6.07629 8.08558 6.15004 7.89993 6.15004C7.71427 6.15004 7.53622 6.07629 7.40495 5.94501C7.27367 5.81373 7.19992 5.63568 7.19992 5.45003V4.40002C7.19992 3.62791 7.82783 3 8.59994 3H11.4C12.1721 3 12.8 3.62791 12.8 4.40002V5.45003C12.8 5.63568 12.7262 5.81373 12.595 5.94501C12.4637 6.07629 12.2856 6.15004 12.1 6.15004ZM10.497 12.3661C10.1605 12.4818 9.7942 12.4768 9.46094 12.3521L1.59985 9.73408V15.0751C1.59985 16.1392 2.46086 17.0002 3.52488 17.0002H16.475C17.539 17.0002 18.4 16.1392 18.4 15.0751V9.73408L10.497 12.3661Z"
        fill="#E2E2E2" />
    <path
        d="M18.4 7.02512V8.62814L10.168 11.3722C10.112 11.3932 10.056 11.4002 9.99995 11.4002C9.94395 11.4002 9.88795 11.3932 9.83195 11.3722L1.59985 8.62814V7.02512C1.59985 5.96111 2.46086 5.1001 3.52488 5.1001H16.475C17.539 5.1001 18.4 5.96111 18.4 7.02512Z"
        fill="#E2E2E2" />
</svg>
    