<svg width="20" height="20" viewBox="0 0 20 20" fill="none" xmlns="http://www.w3.org/2000/svg">
    <g clip-path="url(#clip0_1048_4373)">
        <path
            d="M4.72656 15.3125C7.31125 15.3125 9.41406 12.9079 9.41406 10C9.41406 7.70813 8.10637 6.37832 8.03953 6.26008C8.07316 6.07422 8.24219 5.50828 8.24219 4.72656C8.24219 2.14188 6.6652 0 4.72656 0C2.78793 0 1.17188 2.14188 1.17188 4.72656C1.17188 5.50734 1.34187 6.07988 1.37453 6.26008C1.30828 6.37727 0 7.66617 0 10C0 12.9079 2.14188 15.3125 4.72656 15.3125ZM0.585938 20H19.4141C19.7379 20 20 19.7379 20 19.4141C20 19.0902 19.7379 18.8281 19.4141 18.8281H18.8281V17.6562H19.4141C19.7379 17.6562 20 17.3941 20 17.0703C20 16.7465 19.7379 16.4844 19.4141 16.4844H18.8281V14.7266C18.8281 14.4027 18.566 14.1406 18.2422 14.1406H14.6875C14.3637 14.1406 14.1016 14.4027 14.1016 14.7266V16.4844H13.5156C13.1918 16.4844 12.9297 16.7465 12.9297 17.0703C12.9297 17.3941 13.1918 17.6562 13.5156 17.6562H14.1016V18.8281H11.7578V16.3545C11.3732 16.4408 10.9802 16.4844 10.5859 16.4844C10.1907 16.4844 9.7998 16.4346 9.41406 16.3452V18.8281H5.89844V16.3545C5.12678 16.5276 4.32635 16.5276 3.55469 16.3545V18.8281H0.585938C0.262109 18.8281 0 19.0902 0 19.4141C0 19.7379 0.262109 20 0.585938 20ZM15.2734 17.6562H17.6562V18.8281H15.2734V17.6562Z"
            fill="#E2E2E2" />
        <path
            d="M9.29669 5.98145C10.357 7.48625 10.5859 8.97461 10.5859 10C10.5859 11.8985 9.83138 13.6417 8.63997 14.8223C9.23442 15.1297 9.88981 15.3125 10.5859 15.3125C13.1706 15.3125 15.2734 12.9079 15.2734 10C15.2734 7.66617 13.9651 6.37727 13.8989 6.26008C13.9315 6.07988 14.1015 5.50734 14.1015 4.72656C14.1015 2.14188 12.5245 0 10.5859 0C9.74743 0 8.98692 0.409531 8.38208 1.06523C9.0179 2.06543 9.41403 3.35281 9.41403 4.72656C9.41403 5.23242 9.35575 5.66328 9.29669 5.98145Z"
            fill="#E2E2E2" />
    </g>
    <defs>
        <clipPath id="clip0_1048_4373">
            <rect width="20" height="20" fill="white" />
        </clipPath>
    </defs>
</svg>
    