<svg width="32" height="32" viewBox="0 0 32 32" fill="none" xmlns="http://www.w3.org/2000/svg">
    <path
        d="M20.0975 8.68296C21.3853 8.68296 22.439 7.6293 22.439 6.34148C22.439 5.05366 21.3853 4 20.0975 4C18.8097 4 17.756 5.05366 17.756 6.34148C17.756 7.6293 18.8097 8.68296 20.0975 8.68296ZM7.80484 16.2927C4.58531 16.2927 1.95117 18.9268 1.95117 22.1463C1.95117 25.3659 4.58531 28 7.80484 28C11.0244 28 13.6585 25.3659 13.6585 22.1463C13.6585 18.9268 11.0243 16.2927 7.80484 16.2927ZM7.80484 26.2439C5.52192 26.2439 3.70727 24.4293 3.70727 22.1463C3.70727 19.8634 5.52192 18.0488 7.80484 18.0488C10.0878 18.0488 11.9024 19.8634 11.9024 22.1463C11.9024 24.4293 10.0878 26.2439 7.80484 26.2439Z"
        fill="url(#paint0_linear_1424_11428)" />
    <path
        d="M22.9681 14.9915C23.6096 15.072 24.1361 14.5392 24.1361 13.8926C24.1361 13.246 23.6077 12.7343 22.9709 12.6223C21.7277 12.4036 20.6739 11.8354 19.8629 11.0243L17.58 8.79997C17.2287 8.3902 16.6434 8.09753 15.9995 8.09753C15.3556 8.09753 14.7702 8.3317 14.3604 8.79997L11.1409 12.0195C10.7311 12.4293 10.4385 13.0146 10.4385 13.6585C10.4385 14.3025 10.7311 14.8878 11.1409 15.3561L14.8287 18.6341V23.317C14.8287 23.9636 15.3529 24.4878 15.9995 24.4878C16.646 24.4878 17.1702 23.9636 17.1702 23.317V17.1707L14.5946 14.5951L17.3458 11.7853L18.2238 12.6634C19.4437 13.932 21.0703 14.7533 22.9681 14.9915Z"
        fill="url(#paint1_linear_1424_11428)" />
    <path
        d="M24.1955 16.2927C20.9759 16.2927 18.3418 18.9268 18.3418 22.1463C18.3418 25.3659 20.9759 28 24.1955 28C27.415 28 30.0491 25.3659 30.0491 22.1463C30.0491 18.9268 27.415 16.2927 24.1955 16.2927ZM24.1955 26.2439C21.9125 26.2439 20.0979 24.4293 20.0979 22.1463C20.0979 19.8634 21.9125 18.0488 24.1955 18.0488C26.4784 18.0488 28.293 19.8634 28.293 22.1463C28.293 24.4293 26.4784 26.2439 24.1955 26.2439Z"
        fill="url(#paint2_linear_1424_11428)" />
    <defs>
        <linearGradient id="paint0_linear_1424_11428" x1="21.4375" y1="25.4667" x2="-2.07967" y2="19.0978"
            gradientUnits="userSpaceOnUse">
            <stop stop-color="#7B3EFF" />
            <stop offset="1" stop-color="#B67DFF" />
        </linearGradient>
        <linearGradient id="paint1_linear_1424_11428" x1="23.4665" y1="22.7577" x2="7.69875" y2="18.5773"
            gradientUnits="userSpaceOnUse">
            <stop stop-color="#7B3EFF" />
            <stop offset="1" stop-color="#B67DFF" />
        </linearGradient>
        <linearGradient id="paint2_linear_1424_11428" x1="29.4768" y1="26.7642" x2="16.3718" y2="22.6067"
            gradientUnits="userSpaceOnUse">
            <stop stop-color="#7B3EFF" />
            <stop offset="1" stop-color="#B67DFF" />
        </linearGradient>
    </defs>
</svg>