<svg width="32" height="32" viewBox="0 0 32 32" fill="none" xmlns="http://www.w3.org/2000/svg">
    <g clip-path="url(#clip0_1424_11415)">
        <path
            d="M8.6876 27.7762C8.19264 28.6206 8.2196 29.6622 9.06771 30.2887C9.79342 30.8236 11.0853 30.754 11.5813 29.9092C12.6068 28.1601 14.4664 26.8429 14.4664 26.8429C14.4664 26.8429 13.7816 25.3344 13.4576 22.5075C13.4576 22.5075 9.85435 25.7851 8.6876 27.7762Z"
            fill="url(#paint0_linear_1424_11415)" />
        <path
            d="M23.3158 12.562C21.2115 10.6889 18.954 9.00837 16.4835 7.65668C16.2142 7.45416 15.9132 7.29749 15.5928 7.193C15.3932 7.11095 15.1804 7.0653 14.9647 7.05821C14.6337 7.01684 14.298 7.03787 13.9748 7.12021C13.1536 7.34019 12.5994 7.84269 12.284 8.48214C10.7619 10.2598 9.49055 12.1916 8.34968 14.2329C7.21689 16.258 10.3214 18.0701 11.4531 16.0466C11.8047 15.4147 12.1711 14.791 12.5519 14.1763L13.5354 20.8139C13.6017 21.2625 13.8152 21.6486 14.1134 21.9624C14.59 25.1122 15.465 28.2194 16.8448 31.078C17.8514 33.1646 20.95 31.3406 19.9482 29.2637C18.9173 27.1281 18.2283 24.7639 17.8039 22.3791C18.7367 21.7294 19.0748 20.5594 18.9001 19.3765C18.5755 17.1918 18.2525 15.006 17.9279 12.8208C18.9143 13.5327 19.8636 14.2947 20.772 15.1036C22.5011 16.6376 25.0519 14.1051 23.3158 12.562Z"
            fill="url(#paint1_linear_1424_11415)" />
        <path
            d="M14.6945 6.26294C16.4239 6.26294 17.8259 4.86094 17.8259 3.13147C17.8259 1.40201 16.4239 0 14.6945 0C12.965 0 11.563 1.40201 11.563 3.13147C11.563 4.86094 12.965 6.26294 14.6945 6.26294Z"
            fill="url(#paint2_linear_1424_11415)" />
    </g>
    <defs>
        <linearGradient id="paint0_linear_1424_11415" x1="14.168" y1="29.7728" x2="7.05194" y2="28.0763"
            gradientUnits="userSpaceOnUse">
            <stop stop-color="#7B3EFF" />
            <stop offset="1" stop-color="#B67DFF" />
        </linearGradient>
        <linearGradient id="paint1_linear_1424_11415" x1="23.124" y1="29.3652" x2="4.42205" y2="25.612"
            gradientUnits="userSpaceOnUse">
            <stop stop-color="#7B3EFF" />
            <stop offset="1" stop-color="#B67DFF" />
        </linearGradient>
        <linearGradient id="paint2_linear_1424_11415" x1="17.5198" y1="5.60185" x2="10.5091" y2="3.37777"
            gradientUnits="userSpaceOnUse">
            <stop stop-color="#7B3EFF" />
            <stop offset="1" stop-color="#B67DFF" />
        </linearGradient>
        <clipPath id="clip0_1424_11415">
            <rect width="32" height="32" fill="white" />
        </clipPath>
    </defs>
</svg>