<svg width="40" height="40" viewBox="0 0 40 40" fill="none" xmlns="http://www.w3.org/2000/svg">
<path d="M29.2353 0.588257C26.5294 0.588257 24.3529 2.76473 24.3529 5.47061C24.3529 9.23532 26.8823 12.4118 28.1176 13.7647C26.1176 14.4706 21.7059 16.353 21.4117 19.1177C21.2353 20.9412 22.7059 22.5883 25.8823 24.2353C27.5882 25.1177 28.4706 26.1177 28.4117 27.2353C28.2353 30.6471 20.2353 35 15.1764 37.2941C17.1764 34.8236 20.1176 30.4706 20.1176 25.7647C20.1176 21.8236 16.9411 18.6471 13 18.6471C9.0588 18.6471 5.88232 21.8236 5.88232 25.7647C5.88232 30.9412 8.94115 35.5883 12.647 39.2941C12.7059 39.353 12.7647 39.353 12.8235 39.4118C12.9411 39.4706 13.1176 39.4706 13.2353 39.4118C14.8823 38.7647 29.3529 32.8824 29.5882 27.2941C29.647 25.7059 28.5882 24.2941 26.4117 23.1765C23.7647 21.8236 22.4706 20.4706 22.5882 19.2353C22.8235 17 27.5294 15.1177 29.3529 14.5883C29.7059 14.5883 34.0588 9.9412 34.0588 5.47061C34.1176 2.76473 31.9411 0.588257 29.2353 0.588257ZM13 29.1765C10.9411 29.1765 9.23527 27.4706 9.23527 25.4118C9.23527 23.353 10.8823 21.6471 13 21.6471C15.1176 21.6471 16.7647 23.353 16.7647 25.4118C16.7647 27.5294 15.1176 29.1765 13 29.1765ZM29.2353 7.88237C27.7647 7.88237 26.5882 6.7059 26.5882 5.23532C26.5882 3.76473 27.7647 2.58826 29.2353 2.58826C30.7059 2.58826 31.8823 3.76473 31.8823 5.23532C31.8823 6.7059 30.7059 7.88237 29.2353 7.88237Z" fill="url(#paint0_linear_1424_6344)"/>
<defs>
<linearGradient id="paint0_linear_1424_6344" x1="32.6826" y1="35.3532" x2="-0.289545" y2="27.77" gradientUnits="userSpaceOnUse">
<stop stop-color="#B593FF"/>
<stop offset="1" stop-color="#E6D2FF"/>
</linearGradient>
</defs>
</svg>
