<svg width="40" height="40" viewBox="0 0 40 40" fill="none" xmlns="http://www.w3.org/2000/svg">
<path d="M11.185 25.6115C11.5855 25.6115 11.9358 25.3612 12.086 24.9608L12.7868 22.9586H17.1416L17.8424 24.9608C17.9926 25.3612 18.343 25.6115 18.7434 25.6115C19.3941 25.6115 19.8446 24.9608 19.6444 24.3601L18.8435 22.2578L15.8402 19.2544L16.591 21.4569H13.3374L14.5387 18.0031L13.2373 16.7016L10.3341 24.4102C10.284 24.5103 10.284 24.6604 10.284 24.7606C10.234 25.2111 10.6344 25.6115 11.185 25.6115ZM22.1972 25.6115L21.3964 24.8106C21.3964 25.2111 21.7467 25.5614 22.1972 25.6115ZM27.3029 15.0498C26.5521 14.5993 25.6511 14.399 24.65 14.399H22.2473C21.7467 14.399 21.2962 14.7995 21.2962 15.3501V17.953L23.2484 19.9052V15.9508H24.5999C25.601 15.9508 26.4019 16.2511 26.9025 16.9018C27.4531 17.5526 27.7034 18.4536 27.7034 19.7049V20.3056C27.7034 21.5069 27.403 22.4079 26.8524 23.0587L26.6522 23.2589L27.8535 24.4602C28.3541 24.0598 28.7045 23.6093 29.0048 23.0086C29.4553 22.2077 29.6555 21.2567 29.6555 20.2055V19.6549C29.6555 18.6037 29.4553 17.6527 29.0048 16.8518C28.7045 16.1009 28.1038 15.5003 27.3029 15.0498Z" fill="url(#paint0_linear_1424_6358)"/>
<path d="M31.3074 8.69271C25.0504 2.43576 14.8891 2.43576 8.63217 8.69271C2.37522 14.9497 2.37522 25.111 8.63217 31.3679C14.8891 37.6249 25.0003 37.6249 31.3074 31.3679C37.5643 25.0609 37.5643 14.9497 31.3074 8.69271ZM11.0849 28.9152C6.47977 24.3601 6.17944 17.1021 10.1338 12.1465L27.8535 29.8662C22.898 33.8206 15.64 33.5203 11.0849 28.9152ZM29.8557 27.864L12.1361 10.1443C17.0916 6.18993 24.3496 6.49027 28.9047 11.0954C33.5098 15.6504 33.8101 22.9085 29.8557 27.864Z" fill="url(#paint1_linear_1424_6358)"/>
<defs>
<linearGradient id="paint0_linear_1424_6358" x1="28.7084" y1="24.428" x2="10.353" y2="14.3653" gradientUnits="userSpaceOnUse">
<stop stop-color="#B593FF"/>
<stop offset="1" stop-color="#E6D2FF"/>
</linearGradient>
<linearGradient id="paint1_linear_1424_6358" x1="34.4329" y1="32.6764" x2="-1.45543" y2="21.2911" gradientUnits="userSpaceOnUse">
<stop stop-color="#B593FF"/>
<stop offset="1" stop-color="#E6D2FF"/>
</linearGradient>
</defs>
</svg>
