<svg width="40" height="41" viewBox="0 0 40 41" fill="none" xmlns="http://www.w3.org/2000/svg">
<path fill-rule="evenodd" clip-rule="evenodd" d="M20.2999 0.354858C13.3734 0.354858 7.7417 6.03677 7.7417 13.0452C7.7417 15.4192 8.78729 18.3643 10.3092 21.302C13.6599 27.7709 19.2413 34.2863 19.2413 34.2863C19.3723 34.4388 19.5347 34.5613 19.7175 34.6452C19.9002 34.7292 20.0989 34.7726 20.2999 34.7726C20.501 34.7726 20.6997 34.7292 20.8824 34.6452C21.0651 34.5613 21.2276 34.4388 21.3586 34.2863C21.3586 34.2863 26.94 27.7709 30.2907 21.302C31.8126 18.3643 32.8582 15.4192 32.8582 13.0452C32.8582 6.03677 27.2265 0.354858 20.2999 0.354858ZM20.2999 7.79678C18.9669 7.83273 17.7005 8.38754 16.7704 9.34312C15.8402 10.2987 15.3197 11.5796 15.3197 12.9131C15.3197 14.2466 15.8402 15.5275 16.7704 16.4831C17.7005 17.4387 18.9669 17.9935 20.2999 18.0294C21.633 17.9935 22.8994 17.4387 23.8295 16.4831C24.7597 15.5275 25.2801 14.2466 25.2801 12.9131C25.2801 11.5796 24.7597 10.2987 23.8295 9.34312C22.8994 8.38754 21.633 7.83273 20.2999 7.79678Z" fill="url(#paint0_linear_1424_6336)"/>
<mask id="path-2-inside-1_1424_6336" fill="white">
<path d="M28.331 30.2467C28.4262 30.1931 28.5386 30.1774 28.6448 30.2035C31.1596 30.8226 33.0901 31.713 34.1673 32.7523C35.268 33.8143 35.421 34.9771 34.6041 36.073C33.7873 37.169 32.0428 38.1416 29.622 38.8507C27.2011 39.5599 24.2289 39.969 21.1333 40.0191C18.0378 40.0692 14.9788 39.7578 12.3968 39.1296C9.81492 38.5015 7.8434 37.5891 6.76624 36.5238C5.68908 35.4585 5.56189 34.2954 6.40298 33.2019C7.22502 32.1332 8.93048 31.185 11.2819 30.4873C11.3877 30.4559 11.5016 30.4649 11.6016 30.5115C11.9842 30.69 11.9435 31.259 11.5475 31.4053C10.0469 31.9597 8.948 32.6471 8.36515 33.4048C7.64123 34.346 7.7507 35.3471 8.6778 36.2639C9.6049 37.1808 11.3018 37.9661 13.524 38.5067C15.7462 39.0474 18.3791 39.3154 21.0434 39.2723C23.7077 39.2291 26.2659 38.877 28.3494 38.2667C30.433 37.6563 31.9345 36.8192 32.6375 35.8759C33.3406 34.9327 33.2089 33.9319 32.2616 33.0179C31.4717 32.2557 30.1487 31.5866 28.4357 31.0757C28.0575 30.9629 27.987 30.4402 28.331 30.2467Z"/>
</mask>
<path d="M28.331 30.2467C28.4262 30.1931 28.5386 30.1774 28.6448 30.2035C31.1596 30.8226 33.0901 31.713 34.1673 32.7523C35.268 33.8143 35.421 34.9771 34.6041 36.073C33.7873 37.169 32.0428 38.1416 29.622 38.8507C27.2011 39.5599 24.2289 39.969 21.1333 40.0191C18.0378 40.0692 14.9788 39.7578 12.3968 39.1296C9.81492 38.5015 7.8434 37.5891 6.76624 36.5238C5.68908 35.4585 5.56189 34.2954 6.40298 33.2019C7.22502 32.1332 8.93048 31.185 11.2819 30.4873C11.3877 30.4559 11.5016 30.4649 11.6016 30.5115C11.9842 30.69 11.9435 31.259 11.5475 31.4053C10.0469 31.9597 8.948 32.6471 8.36515 33.4048C7.64123 34.346 7.7507 35.3471 8.6778 36.2639C9.6049 37.1808 11.3018 37.9661 13.524 38.5067C15.7462 39.0474 18.3791 39.3154 21.0434 39.2723C23.7077 39.2291 26.2659 38.877 28.3494 38.2667C30.433 37.6563 31.9345 36.8192 32.6375 35.8759C33.3406 34.9327 33.2089 33.9319 32.2616 33.0179C31.4717 32.2557 30.1487 31.5866 28.4357 31.0757C28.0575 30.9629 27.987 30.4402 28.331 30.2467Z" stroke="url(#paint1_linear_1424_6336)" stroke-width="10.3693" mask="url(#path-2-inside-1_1424_6336)"/>
<defs>
<linearGradient id="paint0_linear_1424_6336" x1="31.6304" y1="31.1396" x2="2.25989" y2="24.3401" gradientUnits="userSpaceOnUse">
<stop stop-color="#B593FF"/>
<stop offset="1" stop-color="#E6D2FF"/>
</linearGradient>
<linearGradient id="paint1_linear_1424_6336" x1="33.6911" y1="38.8915" x2="13.0687" y2="21.0489" gradientUnits="userSpaceOnUse">
<stop stop-color="#B593FF"/>
<stop offset="1" stop-color="#E6D2FF"/>
</linearGradient>
</defs>
</svg>
