<svg width="20" height="20" viewBox="0 0 20 20" fill="none" xmlns="http://www.w3.org/2000/svg">
<path fill-rule="evenodd" clip-rule="evenodd" d="M17.2698 15.1289H2.73039C2.40678 15.1289 2.14223 15.4066 2.14223 15.7463V16.3824C2.14223 16.7221 2.40678 17 2.73039 17H17.2698C17.5933 17 17.8582 16.7221 17.8582 16.3824V15.7463C17.8582 15.4065 17.5932 15.1289 17.2698 15.1289ZM20 5.33844C20 6.02778 19.464 6.59038 18.807 6.59038C18.7325 6.59038 18.6591 6.58246 18.5879 6.56854L17.3127 13.7298C17.2986 13.7294 17.2839 13.7294 17.2698 13.7294H2.73039C2.71608 13.7294 2.70177 13.7294 2.68727 13.7298L1.41225 6.56854C1.33995 6.58287 1.26656 6.59018 1.19299 6.59038C0.536246 6.59038 0 6.02778 0 5.33844C0 4.64909 0.536181 4.08622 1.19299 4.08622C1.84979 4.08622 2.38591 4.6484 2.38591 5.33844C2.38591 5.62073 2.29567 5.88181 2.14453 6.09164L5.72486 8.92804L9.51921 4.78604C9.00003 4.58083 8.6293 4.05405 8.6293 3.43862C8.6293 2.6465 9.24482 2 10.0001 2C10.7553 2 11.371 2.64657 11.371 3.43862C11.371 4.05398 11 4.58083 10.4809 4.78604L14.275 8.92804L17.8553 6.09164C17.6987 5.87495 17.614 5.61043 17.614 5.33844C17.614 4.6484 18.1501 4.08622 18.8069 4.08622C19.4638 4.08622 20 4.6484 20 5.33844Z" fill="url(#paint0_linear_1424_6552)"/>
<defs>
<linearGradient id="paint0_linear_1424_6552" x1="9.99993" y1="4.14051" x2="9.99993" y2="14.858" gradientUnits="userSpaceOnUse">
<stop stop-color="#FF742B"/>
<stop offset="1" stop-color="#FFBC10"/>
</linearGradient>
</defs>
</svg>
