<svg width="40" height="40" viewBox="0 0 40 40" fill="none" xmlns="http://www.w3.org/2000/svg">
<path d="M4.29984 31.6834L4.2665 31.7168C3.8165 30.7334 3.53317 29.6168 3.4165 28.3834C3.53317 29.6001 3.84984 30.7001 4.29984 31.6834Z" fill="#292D32"/>
<path d="M15.0004 17.3C17.1911 17.3 18.967 15.5241 18.967 13.3334C18.967 11.1426 17.1911 9.3667 15.0004 9.3667C12.8096 9.3667 11.0337 11.1426 11.0337 13.3334C11.0337 15.5241 12.8096 17.3 15.0004 17.3Z" fill="url(#paint0_linear_2918_3131)"/>
<path d="M26.9835 3.33337H13.0168C6.95016 3.33337 3.3335 6.95004 3.3335 13.0167V26.9834C3.3335 28.8 3.65016 30.3834 4.26683 31.7167C5.70016 34.8834 8.76683 36.6667 13.0168 36.6667H26.9835C33.0502 36.6667 36.6668 33.05 36.6668 26.9834V23.1667V13.0167C36.6668 6.95004 33.0502 3.33337 26.9835 3.33337ZM33.9502 20.8334C32.6502 19.7167 30.5502 19.7167 29.2502 20.8334L22.3168 26.7834C21.0168 27.9 18.9168 27.9 17.6168 26.7834L17.0502 26.3167C15.8668 25.2834 13.9835 25.1834 12.6502 26.0834L6.41683 30.2667C6.05016 29.3334 5.8335 28.25 5.8335 26.9834V13.0167C5.8335 8.31671 8.31683 5.83337 13.0168 5.83337H26.9835C31.6835 5.83337 34.1668 8.31671 34.1668 13.0167V21.0167L33.9502 20.8334Z" fill="url(#paint1_linear_2918_3131)"/>
<defs>
<linearGradient id="paint0_linear_2918_3131" x1="18.5792" y1="16.4626" x2="9.69874" y2="13.6454" gradientUnits="userSpaceOnUse">
<stop stop-color="#B593FF"/>
<stop offset="1" stop-color="#E6D2FF"/>
</linearGradient>
<linearGradient id="paint1_linear_2918_3131" x1="35.0374" y1="33.1482" x2="-2.27554" y2="21.3109" gradientUnits="userSpaceOnUse">
<stop stop-color="#B593FF"/>
<stop offset="1" stop-color="#E6D2FF"/>
</linearGradient>
</defs>
</svg>
