<svg width="20" height="20" viewBox="0 0 20 20" fill="none" xmlns="http://www.w3.org/2000/svg">
<path d="M17.0062 10.65C17.0063 11.7834 16.7315 12.8998 16.2053 13.9036C15.6791 14.9074 14.9172 15.7686 13.9851 16.4133C13.0529 17.0579 11.9783 17.4668 10.8534 17.6049C9.72848 17.7429 8.58686 17.606 7.52649 17.2059C6.46611 16.8058 5.51863 16.1544 4.76532 15.3077C4.01201 14.4609 3.47536 13.444 3.20141 12.3443C2.92746 11.2446 2.92439 10.0948 3.19246 8.99359C3.46054 7.8924 3.99175 6.87268 4.74053 6.02191C4.7541 6.00519 4.77126 5.99174 4.79073 5.98255C4.8102 5.97335 4.83149 5.96865 4.85303 5.96879C4.89541 5.96988 4.93616 5.9853 4.96865 6.01254L5.8249 6.86878C5.85217 6.89709 5.86791 6.93454 5.86907 6.97383C5.87022 7.01311 5.85671 7.05142 5.83115 7.08128C5.02313 8.02762 4.56077 9.2205 4.51996 10.4642C4.47914 11.7079 4.86229 12.9285 5.60653 13.9258C6.35077 14.9231 7.4119 15.6378 8.61579 15.9526C9.81968 16.2674 11.0948 16.1636 12.232 15.6583C13.3691 15.153 14.3007 14.2761 14.874 13.1717C15.4472 12.0672 15.6279 10.8007 15.3866 9.57992C15.1452 8.35918 14.496 7.25675 13.5456 6.45351C12.5952 5.65027 11.4 5.19394 10.1562 5.15941V6.22504C10.156 6.25238 10.1486 6.27921 10.1349 6.30283C10.1211 6.32645 10.1013 6.34604 10.0776 6.35965C10.0539 6.37325 10.027 6.38039 9.99967 6.38035C9.97232 6.3803 9.94546 6.37309 9.92178 6.35941L6.69678 4.49691C6.67307 4.48339 6.65336 4.46384 6.63965 4.44024C6.62594 4.41664 6.61872 4.38983 6.61872 4.36253C6.61872 4.33524 6.62594 4.30843 6.63965 4.28483C6.65336 4.26123 6.67307 4.24168 6.69678 4.22816L9.92178 2.36566C9.94553 2.35195 9.97248 2.34473 9.9999 2.34473C10.0273 2.34473 10.0543 2.35195 10.078 2.36566C10.1016 2.37929 10.1213 2.39887 10.135 2.42244C10.1487 2.44602 10.156 2.47277 10.1562 2.50004V3.64378C11.9863 3.68716 13.727 4.44411 15.0068 5.75308C16.2866 7.06206 17.0041 8.81939 17.0062 10.65Z" fill="#8E52FF"/>
</svg>
