<svg width="21" height="20" viewBox="0 0 21 20" fill="none" xmlns="http://www.w3.org/2000/svg">
<path d="M9.7171 9.11431C11.9578 9.11431 13.7743 7.29786 13.7743 5.05716C13.7743 2.81645 11.9578 1 9.7171 1C7.47639 1 5.65994 2.81645 5.65994 5.05716C5.65994 7.29786 7.47639 9.11431 9.7171 9.11431Z" fill="url(#paint0_linear_1982_3712)"/>
<path d="M9.71677 10.5722C10.7991 10.5722 11.7976 10.2661 12.5985 9.75036C13.2149 9.3532 14.0259 9.42168 14.5686 9.91486C16.0242 11.2374 16.9368 13.1466 16.9335 15.268L16.9319 16.1423C16.9303 17.0461 16.1972 17.7778 15.2934 17.7778H4.14011C3.23633 17.7778 2.50329 17.0461 2.50165 16.1423L2.50001 15.268C2.49673 13.1462 3.40968 11.2371 4.86496 9.91486C5.40762 9.42168 6.21866 9.35352 6.83505 9.75036C7.63593 10.2661 8.63408 10.5722 9.71677 10.5722Z" fill="url(#paint1_linear_1982_3712)"/>
<path d="M18.3311 7.3707H17.0781V6.11761C17.0781 5.7755 16.8008 5.4986 16.459 5.4986C16.1169 5.4986 15.84 5.77582 15.84 6.11761V7.3707H14.5869C14.2448 7.3707 13.9679 7.64793 13.9679 7.98971C13.9679 8.33182 14.2452 8.60872 14.5869 8.60872H15.84V9.86182C15.84 10.2039 16.1173 10.4808 16.459 10.4808C16.8012 10.4808 17.0781 10.2036 17.0781 9.86182V8.60872H18.3311C18.6733 8.60872 18.9502 8.33149 18.9502 7.98971C18.9502 7.6476 18.6729 7.3707 18.3311 7.3707Z" fill="url(#paint2_linear_1982_3712)"/>
<defs>
<linearGradient id="paint0_linear_1982_3712" x1="13.3776" y1="8.2578" x2="4.29454" y2="5.37627" gradientUnits="userSpaceOnUse">
<stop stop-color="#7B3EFF"/>
<stop offset="1" stop-color="#B67DFF"/>
</linearGradient>
<linearGradient id="paint1_linear_1982_3712" x1="16.228" y1="16.9033" x2="2.6062" y2="9.37469" gradientUnits="userSpaceOnUse">
<stop stop-color="#7B3EFF"/>
<stop offset="1" stop-color="#B67DFF"/>
</linearGradient>
<linearGradient id="paint2_linear_1982_3712" x1="18.7066" y1="9.95492" x2="13.1296" y2="8.18565" gradientUnits="userSpaceOnUse">
<stop stop-color="#7B3EFF"/>
<stop offset="1" stop-color="#B67DFF"/>
</linearGradient>
</defs>
</svg>
