<svg width="7" height="14" viewBox="0 0 7 14" fill="none" xmlns="http://www.w3.org/2000/svg">
<path d="M6.12495 9.06252L2.30329 12.8842C2.06879 13.1186 1.75079 13.2502 1.41924 13.2501C1.0877 13.25 0.769757 13.1183 0.535372 12.8838C0.300987 12.6493 0.169355 12.3313 0.169434 11.9997C0.169512 11.6682 0.301294 11.3502 0.535789 11.1158L4.35745 7.29502C4.39625 7.25631 4.42704 7.21033 4.44804 7.15971C4.46905 7.10909 4.47986 7.05482 4.47986 7.00002C4.47986 6.94521 4.46905 6.89094 4.44804 6.84032C4.42704 6.7897 4.39625 6.74372 4.35745 6.70502L0.535789 2.88418C0.301294 2.6498 0.169512 2.33186 0.169434 2.00031C0.169355 1.66876 0.300987 1.35076 0.535372 1.11627C0.769757 0.881771 1.0877 0.749987 1.41924 0.749909C1.75079 0.749831 2.06879 0.881463 2.30329 1.11585L6.12495 4.93752C6.67097 5.48505 6.9776 6.22675 6.9776 7.00002C6.9776 7.77328 6.67097 8.51499 6.12495 9.06252V9.06252Z" fill="url(#paint0_linear_2882_3013)"/>
<defs>
<linearGradient id="paint0_linear_2882_3013" x1="6.6448" y1="2.06938" x2="-1.50002" y2="3.47668" gradientUnits="userSpaceOnUse">
<stop stop-color="#7B3EFF"/>
<stop offset="1" stop-color="#B67DFF"/>
</linearGradient>
</defs>
</svg>
