<svg width="16" height="10" viewBox="0 0 16 10" fill="none" xmlns="http://www.w3.org/2000/svg">
    <path
        d="M13.5809 9.5H2.73164C1.53633 9.5 0.5625 8.52617 0.5625 7.33086V2.66914C0.5625 1.47383 1.53633 0.5 2.73164 0.5H13.5809C14.7762 0.5 15.75 1.47383 15.75 2.66914V7.33086C15.75 8.52617 14.7762 9.5 13.5809 9.5ZM2.73164 1.625C2.15508 1.625 1.6875 2.09258 1.6875 2.66914V7.33086C1.6875 7.90742 2.15508 8.375 2.73164 8.375H13.5809C14.1574 8.375 14.625 7.90742 14.625 7.33086V2.66914C14.625 2.09258 14.1574 1.625 13.5809 1.625H2.73164Z"
        fill="#BCB8FF" />
</svg>
    