<svg width="28" height="28" viewBox="0 0 28 28" fill="none" xmlns="http://www.w3.org/2000/svg">
<path d="M9.62493 16.8875L14.9753 22.2378C15.3035 22.5659 15.7487 22.7502 16.2129 22.7501C16.6771 22.75 17.1222 22.5655 17.4503 22.2372C17.7785 21.9089 17.9628 21.4637 17.9626 20.9996C17.9625 20.5354 17.778 20.0903 17.4497 19.7621L12.0994 14.413C12.0451 14.3588 12.002 14.2944 11.9726 14.2235C11.9432 14.1527 11.928 14.0767 11.928 14C11.928 13.9232 11.9432 13.8473 11.9726 13.7764C12.002 13.7055 12.0451 13.6412 12.0994 13.587L17.4497 8.23781C17.778 7.90967 17.9625 7.46455 17.9626 7.00038C17.9628 6.53621 17.7785 6.09102 17.4503 5.76272C17.1222 5.43443 16.6771 5.24993 16.2129 5.24982C15.7487 5.24971 15.3035 5.434 14.9753 5.76214L9.62493 11.1125C8.86049 11.879 8.43121 12.9174 8.43121 14C8.43121 15.0825 8.86049 16.1209 9.62493 16.8875V16.8875Z" fill="white"/>
</svg>
