<svg width="21" height="21" viewBox="0 0 21 21" fill="none" xmlns="http://www.w3.org/2000/svg">
    <g clip-path="url(#clip0_1337_2629)">
        <path fill-rule="evenodd" clip-rule="evenodd"
            d="M5.01893 2.95384C6.51922 1.49522 8.55405 0.675781 10.6758 0.675781C12.7975 0.675781 14.8323 1.49522 16.3326 2.95384C17.8329 4.41246 18.6758 6.39076 18.6758 8.45356C18.6758 14.7499 10.6758 20.6758 10.6758 20.6758C10.6758 20.6758 2.67578 14.7499 2.67578 8.45356C2.67578 6.39076 3.51864 4.41246 5.01893 2.95384Z"
            fill="url(#paint0_linear_1337_2629)" />
        <g clip-path="url(#clip1_1337_2629)">
            <path
                d="M10.6758 5C8.47019 5 6.67578 6.79436 6.67578 8.99998C6.67578 11.2056 8.47019 13 10.6758 13C12.8813 13 14.6757 11.2056 14.6757 8.99998C14.6757 6.79436 12.8814 5 10.6758 5ZM12.9726 8.32435L10.4596 10.8373C10.4072 10.89 10.3449 10.9318 10.2762 10.9602C10.2076 10.9887 10.134 11.0032 10.0597 11.003C9.90855 11.003 9.76652 10.9442 9.65966 10.8373L8.3789 9.55657C8.32621 9.50417 8.28443 9.44183 8.25598 9.37317C8.22754 9.30452 8.213 9.2309 8.2132 9.15658C8.2132 9.00545 8.27205 8.86341 8.3789 8.75656C8.4313 8.70385 8.49363 8.66207 8.56229 8.63363C8.63095 8.60518 8.70457 8.59064 8.77889 8.59085C8.92998 8.59085 9.07206 8.6497 9.17887 8.7566L10.0596 9.63729L12.1726 7.52434C12.225 7.47165 12.2873 7.42987 12.356 7.40144C12.4246 7.373 12.4982 7.35847 12.5725 7.35867C12.7236 7.35867 12.8657 7.41748 12.9725 7.52434C13.1932 7.74497 13.1932 8.1038 12.9726 8.32435Z"
                fill="white" />
        </g>
    </g>
    <defs>
        <linearGradient id="paint0_linear_1337_2629" x1="17.8937" y1="18.5647" x2="-0.626202"
            y2="13.8644" gradientUnits="userSpaceOnUse">
            <stop stop-color="#7B3EFF" />
            <stop offset="1" stop-color="#B67DFF" />
        </linearGradient>
        <clipPath id="clip0_1337_2629">
            <rect x="0.675781" y="0.675781" width="20" height="20" rx="10" fill="white" />
        </clipPath>
        <clipPath id="clip1_1337_2629">
            <rect width="8" height="8" fill="white" transform="translate(6.67578 5)" />
        </clipPath>
    </defs>
</svg>
    