<svg width="24" height="20" viewBox="0 0 24 20" fill="none" xmlns="http://www.w3.org/2000/svg">
<path d="M21.1304 3.73915H18.6261L17.2435 1.6522C16.7218 0.86959 15.8087 0.400024 14.8696 0.400024H9.13045C8.19132 0.400024 7.27827 0.86959 6.75653 1.6522L5.37393 3.73915H2.86958C2.49243 3.73807 2.1188 3.81155 1.77015 3.95537C1.42151 4.09919 1.10474 4.31052 0.838059 4.5772C0.571378 4.84388 0.360049 5.16065 0.216225 5.5093C0.0724022 5.85794 -0.00107759 6.23158 1.19409e-05 6.60872V16.7305C-0.00107759 17.1076 0.0724022 17.4812 0.216225 17.8299C0.360049 18.1785 0.571378 18.4953 0.838059 18.762C1.10474 19.0287 1.42151 19.24 1.77015 19.3838C2.1188 19.5276 2.49243 19.6011 2.86958 19.6H21.1304C21.5076 19.6011 21.8812 19.5276 22.2299 19.3838C22.5785 19.24 22.8953 19.0287 23.162 18.762C23.4286 18.4953 23.64 18.1785 23.7838 17.8299C23.9276 17.4812 24.0011 17.1076 24 16.7305V6.60872C24.0011 6.23158 23.9276 5.85794 23.7838 5.5093C23.64 5.16065 23.4286 4.84388 23.162 4.5772C22.8953 4.31052 22.5785 4.09919 22.2299 3.95537C21.8812 3.81155 21.5076 3.73807 21.1304 3.73915ZM12 17.2522C8.4261 17.2522 5.53045 14.3565 5.53045 10.7826C5.53045 7.20872 8.4261 4.33915 12 4.33915C15.5739 4.33915 18.4696 7.23481 18.4696 10.8087C18.4696 14.3565 15.5739 17.2522 12 17.2522ZM20.7652 7.78263H19.6174C19.1478 7.75655 18.7826 7.36524 18.8087 6.89568C18.8348 6.4522 19.1739 6.11307 19.6174 6.08698H20.6609C21.1304 6.06089 21.5218 6.42611 21.5478 6.89568C21.5739 7.36524 21.2348 7.75655 20.7652 7.78263Z" fill="url(#paint0_linear_2697_14975)"/>
<path d="M12.0004 7.20874C10.0178 7.20874 8.40039 8.82613 8.40039 10.8087C8.40039 12.7913 10.0178 14.3827 12.0004 14.3827C13.983 14.3827 15.6004 12.7653 15.6004 10.7827C15.6004 8.80005 13.983 7.20874 12.0004 7.20874Z" fill="url(#paint1_linear_2697_14975)"/>
<defs>
<linearGradient id="paint0_linear_2697_14975" x1="22.8268" y1="17.5734" x2="-2.72429" y2="7.44099" gradientUnits="userSpaceOnUse">
<stop stop-color="#7B3EFF"/>
<stop offset="1" stop-color="#B67DFF"/>
</linearGradient>
<linearGradient id="paint1_linear_2697_14975" x1="15.2484" y1="13.6254" x2="7.1942" y2="11.061" gradientUnits="userSpaceOnUse">
<stop stop-color="#7B3EFF"/>
<stop offset="1" stop-color="#B67DFF"/>
</linearGradient>
</defs>
</svg>
