<svg width="24" height="24" viewBox="0 0 24 24" fill="none" xmlns="http://www.w3.org/2000/svg">
<circle cx="12" cy="12" r="12" fill="#D5BBFF"/>
<path fill-rule="evenodd" clip-rule="evenodd" d="M13.2195 11.8995L16.8493 8.26972C17.0244 8.09469 17.1227 7.85729 17.1227 7.60975C17.1227 7.36222 17.0244 7.12482 16.8493 6.94979C16.6743 6.77475 16.4369 6.67642 16.1894 6.67642C15.9418 6.67642 15.7044 6.77475 15.5294 6.94979L11.8996 10.5796L8.26976 6.94979C8.09473 6.77475 7.85733 6.67642 7.6098 6.67642C7.36226 6.67642 7.12486 6.77475 6.94983 6.94979C6.7748 7.12482 6.67646 7.36222 6.67646 7.60975C6.67646 7.85729 6.7748 8.09469 6.94983 8.26972L10.5796 11.8995L6.94983 15.5294C6.7748 15.7044 6.67646 15.9418 6.67646 16.1893C6.67646 16.4369 6.7748 16.6742 6.94983 16.8493C7.12486 17.0243 7.36226 17.1226 7.6098 17.1227C7.85733 17.1226 8.09473 17.0243 8.26976 16.8493L11.8996 13.2195L15.5294 16.8493C15.7044 17.0243 15.9418 17.1227 16.1894 17.1227C16.4369 17.1227 16.6743 17.0243 16.8493 16.8493C17.0244 16.6742 17.1227 16.4369 17.1227 16.1893C17.1227 15.9418 17.0244 15.7044 16.8493 15.5294L13.2195 11.8995Z" fill="white"/>
</svg>
