<svg width="22" height="22" viewBox="0 0 22 22" fill="none" xmlns="http://www.w3.org/2000/svg">
<path d="M17.9565 6.43471C19.2772 6.43471 20.3478 5.36408 20.3478 4.0434C20.3478 2.72272 19.2772 1.6521 17.9565 1.6521C16.6358 1.6521 15.5652 2.72272 15.5652 4.0434C15.5652 5.36408 16.6358 6.43471 17.9565 6.43471Z" fill="#FF3B30"/>
<path d="M17.1217 7.65209C15.7565 7.35643 14.6435 6.24339 14.3478 4.87817C14.2348 4.34774 14.2261 3.83469 14.3217 3.34774C14.4348 2.80861 14.0348 2.30426 13.4783 2.30426H6.65218C4.25218 2.30426 2.30435 4.25209 2.30435 6.65209V12.6956C2.30435 15.0956 4.25218 17.0434 6.65218 17.0434H7.95653C8.2 17.0434 8.51305 17.1999 8.65218 17.3912L9.95653 19.1217C10.5304 19.8869 11.4696 19.8869 12.0435 19.1217L13.3478 17.3912C13.513 17.1738 13.7652 17.0434 14.0435 17.0434H15.3565C17.7565 17.0434 19.6957 15.1043 19.6957 12.7043V8.52165C19.6957 7.97382 19.1913 7.57383 18.6522 7.67817C18.1652 7.76513 17.6522 7.76513 17.1217 7.65209ZM7.52174 10.9999C7.03479 10.9999 6.65218 10.6086 6.65218 10.1303C6.65218 9.65209 7.03479 9.26078 7.52174 9.26078C8 9.26078 8.39131 9.65209 8.39131 10.1303C8.39131 10.6086 8.0087 10.9999 7.52174 10.9999ZM11 10.9999C10.513 10.9999 10.1304 10.6086 10.1304 10.1303C10.1304 9.65209 10.513 9.26078 11 9.26078C11.4783 9.26078 11.8696 9.65209 11.8696 10.1303C11.8696 10.6086 11.487 10.9999 11 10.9999ZM14.4783 10.9999C13.9913 10.9999 13.6087 10.6086 13.6087 10.1303C13.6087 9.65209 13.9913 9.26078 14.4783 9.26078C14.9565 9.26078 15.3478 9.65209 15.3478 10.1303C15.3478 10.6086 14.9652 10.9999 14.4783 10.9999Z" fill="white"/>
</svg>
