<svg width="20" height="20" viewBox="0 0 20 20" fill="none" xmlns="http://www.w3.org/2000/svg">
    <path
        d="M17.5583 4.35841C16.2167 4.22508 14.875 4.12508 13.525 4.05008V4.04175L13.3417 2.95841C13.2167 2.19175 13.0333 1.04175 11.0833 1.04175H8.9C6.95834 1.04175 6.775 2.14175 6.64167 2.95008L6.46667 4.01675C5.69167 4.06675 4.91667 4.11675 4.14167 4.19175L2.44167 4.35841C2.09167 4.39175 1.84167 4.70008 1.875 5.04175C1.90834 5.38341 2.20834 5.63341 2.55834 5.60008L4.25834 5.43341C8.625 5.00008 13.025 5.16675 17.4417 5.60841C17.4667 5.60841 17.4833 5.60841 17.5083 5.60841C17.825 5.60841 18.1 5.36675 18.1333 5.04175C18.1583 4.70008 17.9083 4.39175 17.5583 4.35841Z"
        fill="#FF3B30" />
    <path
        d="M16.025 6.78325C15.825 6.57492 15.55 6.45825 15.2667 6.45825H4.73333C4.44999 6.45825 4.16666 6.57492 3.97499 6.78325C3.78333 6.99159 3.67499 7.27492 3.69166 7.56659L4.20833 16.1166C4.29999 17.3833 4.41666 18.9666 7.32499 18.9666H12.675C15.5833 18.9666 15.7 17.3916 15.7917 16.1166L16.3083 7.57492C16.325 7.27492 16.2167 6.99159 16.025 6.78325ZM11.3833 14.7916H8.60833C8.26666 14.7916 7.98333 14.5083 7.98333 14.1666C7.98333 13.8249 8.26666 13.5416 8.60833 13.5416H11.3833C11.725 13.5416 12.0083 13.8249 12.0083 14.1666C12.0083 14.5083 11.725 14.7916 11.3833 14.7916ZM12.0833 11.4583H7.91666C7.57499 11.4583 7.29166 11.1749 7.29166 10.8333C7.29166 10.4916 7.57499 10.2083 7.91666 10.2083H12.0833C12.425 10.2083 12.7083 10.4916 12.7083 10.8333C12.7083 11.1749 12.425 11.4583 12.0833 11.4583Z"
        fill="#FF3B30" />
</svg>
    