<svg width="24" height="24" viewBox="0 0 24 24" fill="none" xmlns="http://www.w3.org/2000/svg">
<path d="M12.623 6.12968L3.43453 15.331C3.09594 15.6707 2.88196 16.115 2.82731 16.5919L2.4612 19.811C2.43734 20.0374 2.46143 20.2662 2.53189 20.4826C2.60236 20.6991 2.71762 20.8982 2.87016 21.0669C3.02269 21.2357 3.20905 21.3704 3.41709 21.4621C3.62512 21.5539 3.85014 21.6006 4.07745 21.5994H4.26497L7.47962 21.2328C7.95387 21.1778 8.39661 20.9671 8.73869 20.6336L17.9272 11.4234L12.623 6.12968ZM21.0347 5.35172L18.7041 3.01785C18.5091 2.82183 18.2774 2.6663 18.0223 2.56017C17.7671 2.45404 17.4936 2.39941 17.2173 2.39941C16.941 2.39941 16.6675 2.45404 16.4123 2.56017C16.1572 2.6663 15.9255 2.82183 15.7305 3.01785L13.5696 5.18182L18.8737 10.4934L21.0347 8.32942C21.2304 8.13418 21.3858 7.90215 21.4917 7.64666C21.5977 7.39116 21.6523 7.11723 21.6523 6.84057C21.6523 6.56391 21.5977 6.28997 21.4917 6.03448C21.3858 5.77898 21.2304 5.54696 21.0347 5.35172Z" fill="url(#paint0_linear_1036_3553)"/>
<defs>
<linearGradient id="paint0_linear_1036_3553" x1="20.7137" y1="19.5727" x2="-0.778537" y2="12.7545" gradientUnits="userSpaceOnUse">
<stop stop-color="#7B3EFF"/>
<stop offset="1" stop-color="#B67DFF"/>
</linearGradient>
</defs>
</svg>
