<svg width="20" height="20" viewBox="0 0 20 20" fill="none" xmlns="http://www.w3.org/2000/svg">
<path d="M10.5192 5.10825L2.86212 12.776C2.57997 13.0591 2.40165 13.4294 2.35612 13.8267L2.05102 16.5093C2.03113 16.698 2.05121 16.8887 2.10993 17.0691C2.16865 17.2494 2.26471 17.4153 2.39182 17.556C2.51893 17.6966 2.67423 17.8088 2.84759 17.8853C3.02096 17.9617 3.20847 18.0007 3.3979 17.9997H3.55417L6.23304 17.6942C6.62825 17.6484 6.99719 17.4728 7.28226 17.1949L14.9394 9.51965L10.5192 5.10825ZM17.5289 4.45995L15.5868 2.51506C15.4243 2.35171 15.2312 2.2221 15.0186 2.13366C14.806 2.04522 14.578 1.99969 14.3478 1.99969C14.1175 1.99969 13.8896 2.04522 13.677 2.13366C13.4644 2.2221 13.2713 2.35171 13.1088 2.51506L11.308 4.31837L15.7281 8.74467L17.5289 6.94136C17.6921 6.77866 17.8215 6.58531 17.9098 6.3724C17.9981 6.15949 18.0436 5.93121 18.0436 5.70066C18.0436 5.47011 17.9981 5.24183 17.9098 5.02891C17.8215 4.816 17.6921 4.62265 17.5289 4.45995Z" fill="white"/>
</svg>
