<svg width="24" height="24" viewBox="0 0 24 24" fill="none" xmlns="http://www.w3.org/2000/svg">
<path d="M17.0078 5.98673C17.2663 5.99539 17.5115 6.10374 17.6919 6.28909L22.6922 11.2932C22.8792 11.4809 22.9841 11.735 22.9841 12C22.9841 12.2649 22.8792 12.519 22.6922 12.7067L17.6881 17.7108C17.5002 17.8988 17.2453 18.0044 16.9795 18.0044C16.7137 18.0044 16.4588 17.8988 16.2708 17.7108C16.0829 17.5229 15.9773 17.268 15.9773 17.0022C15.9773 16.7364 16.0829 16.4814 16.2708 16.2935L19.559 13.0053H2.00309C1.73746 13.0053 1.4827 12.8998 1.29487 12.712C1.10704 12.5241 1.00151 12.2694 1.00151 12.0037C1.00151 11.7381 1.10704 11.4833 1.29487 11.2955C1.4827 11.1077 1.73746 11.0022 2.00309 11.0022H19.5779L16.2784 7.71019C16.132 7.56968 16.0318 7.38804 15.9909 7.18931C15.9501 6.99057 15.9705 6.78412 16.0496 6.59727C16.1287 6.41043 16.2627 6.25201 16.4338 6.14298C16.6049 6.03396 16.8051 5.97947 17.0078 5.98673Z" fill="white"/>
</svg>
