<svg width="20" height="20" viewBox="0 0 20 20" fill="none" xmlns="http://www.w3.org/2000/svg">
<path d="M2.14992 15.8417L2.13325 15.8583C1.90825 15.3667 1.76659 14.8083 1.70825 14.1917C1.76659 14.8 1.92492 15.35 2.14992 15.8417Z" fill="url(#paint0_linear_635_3286)"/>
<path d="M7.49994 8.65002C8.5953 8.65002 9.48327 7.76205 9.48327 6.66668C9.48327 5.57132 8.5953 4.68335 7.49994 4.68335C6.40457 4.68335 5.5166 5.57132 5.5166 6.66668C5.5166 7.76205 6.40457 8.65002 7.49994 8.65002Z" fill="url(#paint1_linear_635_3286)"/>
<path d="M13.4917 1.66675H6.50841C3.47508 1.66675 1.66675 3.47508 1.66675 6.50841V13.4917C1.66675 14.4001 1.82508 15.1917 2.13341 15.8584C2.85008 17.4417 4.38341 18.3334 6.50841 18.3334H13.4917C16.5251 18.3334 18.3334 16.5251 18.3334 13.4917V11.5834V6.50841C18.3334 3.47508 16.5251 1.66675 13.4917 1.66675ZM16.9751 10.4167C16.3251 9.85841 15.2751 9.85841 14.6251 10.4167L11.1584 13.3917C10.5084 13.9501 9.45841 13.9501 8.80841 13.3917L8.52508 13.1584C7.93341 12.6417 6.99175 12.5917 6.32508 13.0417L3.20841 15.1334C3.02508 14.6667 2.91675 14.1251 2.91675 13.4917V6.50841C2.91675 4.15841 4.15841 2.91675 6.50841 2.91675H13.4917C15.8417 2.91675 17.0834 4.15841 17.0834 6.50841V10.5084L16.9751 10.4167Z" fill="url(#paint2_linear_635_3286)"/>
<defs>
<linearGradient id="paint0_linear_635_3286" x1="2.12833" y1="15.6824" x2="1.58799" y2="15.637" gradientUnits="userSpaceOnUse">
<stop stop-color="#7B3EFF"/>
<stop offset="1" stop-color="#B67DFF"/>
</linearGradient>
<linearGradient id="paint1_linear_635_3286" x1="9.28937" y1="8.23131" x2="4.84913" y2="6.82268" gradientUnits="userSpaceOnUse">
<stop stop-color="#7B3EFF"/>
<stop offset="1" stop-color="#B67DFF"/>
</linearGradient>
<linearGradient id="paint2_linear_635_3286" x1="17.5187" y1="16.5742" x2="-1.13777" y2="10.6555" gradientUnits="userSpaceOnUse">
<stop stop-color="#7B3EFF"/>
<stop offset="1" stop-color="#B67DFF"/>
</linearGradient>
</defs>
</svg>
