<svg width="20" height="20" viewBox="0 0 20 20" fill="none" xmlns="http://www.w3.org/2000/svg">
    <path
        d="M18.3334 9.37502H16.6334C16.3334 6.20002 13.8001 3.65835 10.6251 3.36669V1.66669C10.6251 1.32502 10.3417 1.04169 10.0001 1.04169C9.65841 1.04169 9.37508 1.32502 9.37508 1.66669V3.36669C6.20008 3.66669 3.65841 6.20002 3.36675 9.37502H1.66675C1.32508 9.37502 1.04175 9.65835 1.04175 10C1.04175 10.3417 1.32508 10.625 1.66675 10.625H3.36675C3.66675 13.8 6.20008 16.3417 9.37508 16.6334V18.3334C9.37508 18.675 9.65841 18.9584 10.0001 18.9584C10.3417 18.9584 10.6251 18.675 10.6251 18.3334V16.6334C13.8001 16.3334 16.3417 13.8 16.6334 10.625H18.3334C18.6751 10.625 18.9584 10.3417 18.9584 10C18.9584 9.65835 18.6751 9.37502 18.3334 9.37502ZM10.0001 12.6C8.56675 12.6 7.40008 11.4334 7.40008 10C7.40008 8.56669 8.56675 7.40002 10.0001 7.40002C11.4334 7.40002 12.6001 8.56669 12.6001 10C12.6001 11.4334 11.4334 12.6 10.0001 12.6Z"
        fill="url(#paint0_linear_279_1410)" />
    <defs>
        <linearGradient id="paint0_linear_279_1410" x1="18.0826" y1="17.0671" x2="-1.97311"
            y2="10.7046" gradientUnits="userSpaceOnUse">
            <stop stop-color="#7B3EFF" />
            <stop offset="1" stop-color="#B67DFF" />
        </linearGradient>
    </defs>
</svg>
    