<svg width="22" height="25" viewBox="0 0 22 25" fill="none" xmlns="http://www.w3.org/2000/svg">
<path fill-rule="evenodd" clip-rule="evenodd" d="M10.8277 20.6776V21.8736C10.8277 22.8328 10.3497 23.6608 9.51904 24.1404C9.11938 24.3711 8.67332 24.4998 8.21085 24.5C7.74796 24.5003 7.30204 24.3713 6.9021 24.1404L1.58385 21.0699C0.753084 20.5903 0.275146 19.7624 0.275146 18.8031V3.11741C0.275146 1.67408 1.44927 0.5 2.89255 0.5H14.6053C16.0486 0.5 17.2228 1.67398 17.2228 3.11741V6.42392C17.2228 6.89825 16.8377 7.28338 16.3634 7.28338C15.8889 7.28338 15.5041 6.8983 15.5041 6.42392V3.11741C15.5041 2.6218 15.1009 2.21853 14.6053 2.21853H4.34188L9.51904 5.20808C10.3494 5.68761 10.8277 6.51542 10.8277 7.47434V18.9589H14.6053C15.1008 18.9589 15.5041 18.5558 15.5041 18.0602V15.1616C15.5041 14.687 15.8887 14.3022 16.3634 14.3022C16.8379 14.3022 17.2228 14.687 17.2228 15.1616V18.0602C17.2228 19.5036 16.0486 20.6776 14.6053 20.6776H10.8277ZM18.791 11.448L17.8446 12.3945C17.509 12.7301 17.5091 13.2741 17.8446 13.6097C17.9243 13.6896 18.019 13.7529 18.1233 13.796C18.2276 13.8392 18.3393 13.8613 18.4522 13.8612C18.5651 13.8614 18.6769 13.8393 18.7812 13.7961C18.8856 13.753 18.9803 13.6896 19.0601 13.6097L21.4731 11.1962C21.8086 10.8607 21.8087 10.3169 21.4731 9.98141L19.0601 7.56828C18.7244 7.23266 18.1804 7.2328 17.8446 7.56823C17.5091 7.90348 17.5092 8.44775 17.8446 8.78309L18.791 9.72931H12.4507C11.9759 9.72931 11.5914 10.1141 11.5914 10.5888C11.5914 11.0636 11.9759 11.4481 12.4507 11.4481H18.791V11.448Z" fill="url(#paint0_linear_117_803)"/>
<defs>
<linearGradient id="paint0_linear_117_803" x1="20.6763" y1="21.9667" x2="-3.78432" y2="15.0314" gradientUnits="userSpaceOnUse">
<stop stop-color="#7B3EFF"/>
<stop offset="1" stop-color="#B67DFF"/>
</linearGradient>
</defs>
</svg>
