<svg width="20" height="20" viewBox="0 0 20 20" fill="none" xmlns="http://www.w3.org/2000/svg">
    <g clip-path="url(#clip0_1669_9488)">
        <path fill-rule="evenodd" clip-rule="evenodd"
            d="M10.9717 17.7507C10.9716 18.0072 10.8696 18.2532 10.6882 18.4346C10.5068 18.616 10.2608 18.7179 10.0042 18.7179C9.74774 18.7178 9.50179 18.6159 9.32042 18.4345C9.13905 18.2531 9.03711 18.0072 9.03699 17.7507C9.03225 17.5633 8.95449 17.3852 8.8203 17.2544C8.6861 17.1236 8.5061 17.0503 8.31868 17.0503C8.13125 17.0503 7.95125 17.1236 7.81706 17.2544C7.68286 17.3852 7.6051 17.5633 7.60036 17.7507C7.60036 19.0774 8.67749 20.1546 10.0042 20.1546C11.3312 20.1546 12.4083 19.0774 12.4083 17.7507C12.4036 17.5633 12.3258 17.3852 12.1916 17.2544C12.0575 17.1236 11.8775 17.0503 11.69 17.0503C11.5026 17.0503 11.3226 17.1236 11.1884 17.2544C11.0542 17.3852 10.9765 17.5633 10.9717 17.7507ZM12.698 3.27412V2.15494C12.698 1.58341 12.4709 1.03529 12.0668 0.631166C11.6627 0.227037 11.1146 0 10.543 0H9.46568C8.89415 0 8.34604 0.227037 7.94191 0.631166C7.53778 1.03529 7.31074 1.58341 7.31074 2.15494V3.27412C7.31548 3.46148 7.39324 3.63958 7.52743 3.77042C7.66163 3.90126 7.84163 3.97449 8.02905 3.97449C8.21647 3.97449 8.39648 3.90126 8.53067 3.77042C8.66487 3.63958 8.74262 3.46148 8.74736 3.27412V2.15494C8.74736 1.96443 8.82304 1.78172 8.95775 1.64701C9.09246 1.5123 9.27517 1.43662 9.46568 1.43662H10.543C10.7335 1.43662 10.9162 1.5123 11.051 1.64701C11.1857 1.78172 11.2613 1.96443 11.2613 2.15494V3.27412C11.2661 3.46148 11.3438 3.63958 11.478 3.77042C11.6122 3.90126 11.7922 3.97449 11.9797 3.97449C12.1671 3.97449 12.3471 3.90126 12.4813 3.77042C12.6155 3.63958 12.6932 3.46148 12.698 3.27412ZM2.69952 18.3977L17.0658 4.03151C17.2003 3.89671 17.2759 3.71401 17.2759 3.52352C17.2759 3.33304 17.2003 3.15034 17.0658 3.01553C16.931 2.88095 16.7483 2.80536 16.5578 2.80536C16.3673 2.80536 16.1846 2.88095 16.0498 3.01553L1.68354 17.3818C1.54896 17.5166 1.47337 17.6993 1.47337 17.8898C1.47337 18.0802 1.54896 18.2629 1.68354 18.3977C1.81835 18.5323 2.00105 18.6079 2.19153 18.6079C2.38202 18.6079 2.56472 18.5323 2.69952 18.3977Z"
            fill="url(#paint0_linear_1669_9488)" />
        <path fill-rule="evenodd" clip-rule="evenodd"
            d="M15.9558 6.07298L4.11622 17.9128C4.30352 17.9704 4.49837 17.9997 4.69432 17.9997H15.3145C15.8361 17.9995 16.3361 17.7922 16.7049 17.4234C17.0737 17.0546 17.281 16.5546 17.2812 16.033V16.0314C17.2812 15.7207 17.2076 15.4145 17.0665 15.1377C16.9253 14.861 16.7206 14.6216 16.4691 14.4392V8.30239C16.4691 7.51443 16.2866 6.76026 15.9558 6.07298ZM3.5395 8.30239L3.5464 14.4934L14.1328 3.90724C13.0159 3.0848 11.5795 2.58716 10.0043 2.58716C6.41068 2.58716 3.5395 5.17745 3.5395 8.30239Z"
            fill="url(#paint1_linear_1669_9488)" />
    </g>
    <defs>
        <linearGradient id="paint0_linear_1669_9488" x1="16.5035" y1="18.0271" x2="-1.83161"
            y2="13.4665" gradientUnits="userSpaceOnUse">
            <stop stop-color="#7B3EFF" />
            <stop offset="1" stop-color="#B67DFF" />
        </linearGradient>
        <linearGradient id="paint1_linear_1669_9488" x1="16.6095" y1="16.3728" x2="0.933221"
            y2="11.9388" gradientUnits="userSpaceOnUse">
            <stop stop-color="#7B3EFF" />
            <stop offset="1" stop-color="#B67DFF" />
        </linearGradient>
        <clipPath id="clip0_1669_9488">
            <rect width="20" height="20" fill="white" />
        </clipPath>
    </defs>
</svg>
    