<svg width="20" height="20" viewBox="0 0 20 20" fill="none" xmlns="http://www.w3.org/2000/svg">
<g clip-path="url(#clip0_648_3235)">
<path fill-rule="evenodd" clip-rule="evenodd" d="M10.9717 17.7507C10.9716 18.0072 10.8696 18.2532 10.6882 18.4346C10.5068 18.616 10.2608 18.7179 10.0043 18.7179C9.74776 18.7178 9.50181 18.6159 9.32044 18.4345C9.13907 18.2531 9.03712 18.0072 9.037 17.7507C9.03226 17.5633 8.9545 17.3852 8.82031 17.2544C8.68612 17.1236 8.50611 17.0503 8.31869 17.0503C8.13127 17.0503 7.95126 17.1236 7.81707 17.2544C7.68288 17.3852 7.60512 17.5633 7.60038 17.7507C7.60038 19.0774 8.6775 20.1546 10.0043 20.1546C11.3312 20.1546 12.4084 19.0774 12.4084 17.7507C12.4036 17.5633 12.3259 17.3852 12.1917 17.2544C12.0575 17.1236 11.8775 17.0503 11.69 17.0503C11.5026 17.0503 11.3226 17.1236 11.1884 17.2544C11.0542 17.3852 10.9765 17.5633 10.9717 17.7507ZM12.698 3.27412V2.15494C12.698 1.58341 12.4709 1.03529 12.0668 0.631166C11.6627 0.227037 11.1146 0 10.543 0H9.46569C8.89417 0 8.34605 0.227037 7.94192 0.631166C7.53779 1.03529 7.31076 1.58341 7.31076 2.15494V3.27412C7.3155 3.46148 7.39326 3.63958 7.52745 3.77042C7.66164 3.90126 7.84165 3.97449 8.02907 3.97449C8.21649 3.97449 8.39649 3.90126 8.53069 3.77042C8.66488 3.63958 8.74264 3.46148 8.74738 3.27412V2.15494C8.74738 1.96443 8.82306 1.78172 8.95777 1.64701C9.09248 1.5123 9.27518 1.43662 9.46569 1.43662H10.543C10.7336 1.43662 10.9163 1.5123 11.051 1.64701C11.1857 1.78172 11.2614 1.96443 11.2614 2.15494V3.27412C11.2661 3.46148 11.3439 3.63958 11.478 3.77042C11.6122 3.90126 11.7922 3.97449 11.9797 3.97449C12.1671 3.97449 12.3471 3.90126 12.4813 3.77042C12.6155 3.63958 12.6932 3.46148 12.698 3.27412ZM2.69954 18.3977L17.0658 4.03151C17.2004 3.89671 17.2759 3.71401 17.2759 3.52352C17.2759 3.33304 17.2004 3.15034 17.0658 3.01553C16.931 2.88095 16.7483 2.80536 16.5578 2.80536C16.3673 2.80536 16.1846 2.88095 16.0498 3.01553L1.68356 17.3818C1.54898 17.5166 1.47339 17.6993 1.47339 17.8898C1.47339 18.0802 1.54898 18.2629 1.68356 18.3977C1.81836 18.5323 2.00106 18.6079 2.19155 18.6079C2.38203 18.6079 2.56473 18.5323 2.69954 18.3977Z" fill="url(#paint0_linear_648_3235)"/>
<path fill-rule="evenodd" clip-rule="evenodd" d="M15.9559 6.07298L4.11627 17.9128C4.30357 17.9704 4.49842 17.9997 4.69437 17.9997H15.3146C15.8361 17.9995 16.3362 17.7922 16.705 17.4234C17.0737 17.0546 17.281 16.5546 17.2813 16.033V16.0314C17.2813 15.7207 17.2077 15.4145 17.0665 15.1377C16.9254 14.861 16.7207 14.6216 16.4692 14.4392V8.30239C16.4692 7.51443 16.2867 6.76026 15.9559 6.07298ZM3.53955 8.30239L3.54645 14.4934L14.1329 3.90724C13.016 3.0848 11.5796 2.58716 10.0044 2.58716C6.41073 2.58716 3.53955 5.17745 3.53955 8.30239Z" fill="url(#paint1_linear_648_3235)"/>
</g>
<defs>
<linearGradient id="paint0_linear_648_3235" x1="16.5035" y1="18.0271" x2="-1.8316" y2="13.4665" gradientUnits="userSpaceOnUse">
<stop stop-color="#7B3EFF"/>
<stop offset="1" stop-color="#B67DFF"/>
</linearGradient>
<linearGradient id="paint1_linear_648_3235" x1="16.6095" y1="16.3728" x2="0.933271" y2="11.9388" gradientUnits="userSpaceOnUse">
<stop stop-color="#7B3EFF"/>
<stop offset="1" stop-color="#B67DFF"/>
</linearGradient>
<clipPath id="clip0_648_3235">
<rect width="20" height="20" fill="white"/>
</clipPath>
</defs>
</svg>
