<svg width="22" height="22" viewBox="0 0 22 22" fill="none" xmlns="http://www.w3.org/2000/svg">
    <path
        d="M17.9565 6.43477C19.2772 6.43477 20.3478 5.36415 20.3478 4.04347C20.3478 2.72278 19.2772 1.65216 17.9565 1.65216C16.6358 1.65216 15.5652 2.72278 15.5652 4.04347C15.5652 5.36415 16.6358 6.43477 17.9565 6.43477Z"
        fill="white" />
    <path
        d="M17.1218 7.65215C15.7566 7.35649 14.6435 6.24345 14.3479 4.87823C14.2348 4.3478 14.2261 3.83476 14.3218 3.3478C14.4348 2.80867 14.0348 2.30432 13.4783 2.30432H6.65221C4.25221 2.30432 2.30438 4.25215 2.30438 6.65215V12.6956C2.30438 15.0956 4.25221 17.0435 6.65221 17.0435H7.95656C8.20003 17.0435 8.51308 17.2 8.65221 17.3913L9.95656 19.1217C10.5305 19.8869 11.4696 19.8869 12.0435 19.1217L13.3479 17.3913C13.5131 17.1739 13.7653 17.0435 14.0435 17.0435H15.3566C17.7566 17.0435 19.6957 15.1043 19.6957 12.7043V8.52171C19.6957 7.97389 19.1913 7.57389 18.6522 7.67823C18.1653 7.76519 17.6522 7.76519 17.1218 7.65215ZM7.52177 11C7.03482 11 6.65221 10.6087 6.65221 10.1304C6.65221 9.65215 7.03482 9.26084 7.52177 9.26084C8.00003 9.26084 8.39134 9.65215 8.39134 10.1304C8.39134 10.6087 8.00873 11 7.52177 11ZM11 11C10.5131 11 10.1305 10.6087 10.1305 10.1304C10.1305 9.65215 10.5131 9.26084 11 9.26084C11.4783 9.26084 11.8696 9.65215 11.8696 10.1304C11.8696 10.6087 11.487 11 11 11ZM14.4783 11C13.9913 11 13.6087 10.6087 13.6087 10.1304C13.6087 9.65215 13.9913 9.26084 14.4783 9.26084C14.9566 9.26084 15.3479 9.65215 15.3479 10.1304C15.3479 10.6087 14.9653 11 14.4783 11Z"
        fill="white" />
</svg>
    