<svg width="20" height="20" viewBox="0 0 20 20" fill="none" xmlns="http://www.w3.org/2000/svg">
    <path
        d="M14.375 14.375C16.7912 14.375 18.75 12.4162 18.75 10C18.75 7.58375 16.7912 5.625 14.375 5.625C11.9588 5.625 10 7.58375 10 10C10 12.4162 11.9588 14.375 14.375 14.375Z"
        fill="url(#paint0_linear_1669_9474)" />
    <path
        d="M8.75013 10C8.75053 9.20848 8.9177 8.42592 9.24077 7.70333C9.56383 6.98074 10.0355 6.33434 10.6251 5.80625C9.97228 5.61225 9.28316 5.57334 8.61262 5.69263C7.94208 5.81192 7.30865 6.08611 6.76277 6.49337C6.21688 6.90063 5.77362 7.42972 5.46826 8.03849C5.16291 8.64727 5.00391 9.31893 5.00391 10C5.00391 10.6811 5.16291 11.3527 5.46826 11.9615C5.77362 12.5703 6.21688 13.0994 6.76277 13.5066C7.30865 13.9139 7.94208 14.1881 8.61262 14.3074C9.28316 14.4267 9.97228 14.3878 10.6251 14.1938C10.0355 13.6657 9.56383 13.0193 9.24077 12.2967C8.9177 11.5741 8.75053 10.7915 8.75013 10Z"
        fill="url(#paint1_linear_1669_9474)" />
    <path
        d="M3.75 10C3.74927 9.16207 3.93642 8.33464 4.29768 7.57859C4.65894 6.82254 5.18512 6.1571 5.8375 5.63125C5.76875 5.625 5.69375 5.625 5.625 5.625C4.46468 5.625 3.35188 6.08594 2.53141 6.90641C1.71094 7.72688 1.25 8.83968 1.25 10C1.25 11.1603 1.71094 12.2731 2.53141 13.0936C3.35188 13.9141 4.46468 14.375 5.625 14.375C5.69375 14.375 5.76875 14.375 5.8375 14.3687C5.18512 13.8429 4.65894 13.1775 4.29768 12.4214C3.93642 11.6654 3.74927 10.8379 3.75 10Z"
        fill="url(#paint2_linear_1669_9474)" />
    <defs>
        <linearGradient id="paint0_linear_1669_9474" x1="18.3223" y1="13.4514" x2="8.52763"
            y2="10.3441" gradientUnits="userSpaceOnUse">
            <stop stop-color="#7B3EFF" />
            <stop offset="1" stop-color="#B67DFF" />
        </linearGradient>
        <linearGradient id="paint1_linear_1669_9474" x1="10.3504" y1="13.4514" x2="3.70093"
            y2="12.0962" gradientUnits="userSpaceOnUse">
            <stop stop-color="#7B3EFF" />
            <stop offset="1" stop-color="#B67DFF" />
        </linearGradient>
        <linearGradient id="paint2_linear_1669_9474" x1="5.61325" y1="13.4514" x2="0.113385"
            y2="12.5366" gradientUnits="userSpaceOnUse">
            <stop stop-color="#7B3EFF" />
            <stop offset="1" stop-color="#B67DFF" />
        </linearGradient>
    </defs>
</svg>
    