<svg width="20" height="20" viewBox="0 0 20 20" fill="none" xmlns="http://www.w3.org/2000/svg">
<path d="M14.1667 1.66669H5.83332C3.53332 1.66669 1.66666 3.52502 1.66666 5.81669V10.8V11.6334C1.66666 13.925 3.53332 15.7834 5.83332 15.7834H7.08332C7.30832 15.7834 7.60832 15.9334 7.74999 16.1167L8.99999 17.775C9.54999 18.5084 10.45 18.5084 11 17.775L12.25 16.1167C12.4083 15.9084 12.6583 15.7834 12.9167 15.7834H14.1667C16.4667 15.7834 18.3333 13.925 18.3333 11.6334V5.81669C18.3333 3.52502 16.4667 1.66669 14.1667 1.66669ZM6.66666 10C6.19999 10 5.83332 9.62502 5.83332 9.16669C5.83332 8.70835 6.20832 8.33335 6.66666 8.33335C7.12499 8.33335 7.49999 8.70835 7.49999 9.16669C7.49999 9.62502 7.13332 10 6.66666 10ZM9.99999 10C9.53332 10 9.16666 9.62502 9.16666 9.16669C9.16666 8.70835 9.54166 8.33335 9.99999 8.33335C10.4583 8.33335 10.8333 8.70835 10.8333 9.16669C10.8333 9.62502 10.4667 10 9.99999 10ZM13.3333 10C12.8667 10 12.5 9.62502 12.5 9.16669C12.5 8.70835 12.875 8.33335 13.3333 8.33335C13.7917 8.33335 14.1667 8.70835 14.1667 9.16669C14.1667 9.62502 13.8 10 13.3333 10Z" fill="white"/>
</svg>
