<svg width="20" height="20" viewBox="0 0 20 20" fill="none" xmlns="http://www.w3.org/2000/svg">
    <path
        d="M6 1V16.0205C5.85289 16.0624 5.7268 16.1148 5.61121 16.1777L3.14186 17.5823C1.41856 18.5676 0 17.75 0 15.7585V5.55961C0 4.89925 0.472855 4.08167 1.0613 3.74625L5.61121 1.14675C5.7268 1.08385 5.85289 1.03145 6 1Z"
        fill="url(#paint0_linear_1774_40127)" />
    <path d="M13 3.7759V19L8 16.2995V1L13 3.7759Z" fill="url(#paint1_linear_1774_40127)" />
    <path
        d="M20 4.26812V14.5879C20 15.256 19.5714 16.0833 19.0381 16.4227L15 19V3.79084L17.1524 2.42266C18.7143 1.42568 20 2.25296 20 4.26812Z"
        fill="url(#paint2_linear_1774_40127)" />
    <defs>
        <linearGradient id="paint0_linear_1774_40127" x1="5.95385" y1="13.336" x2="-1.90309" y2="10.7537"
            gradientUnits="userSpaceOnUse">
            <stop stop-color="#B17EFF" />
            <stop offset="0.9999" stop-color="#DAC1FF" />
        </linearGradient>
        <linearGradient id="paint1_linear_1774_40127" x1="12.9615" y1="14.0616" x2="6.16181" y2="12.3028"
            gradientUnits="userSpaceOnUse">
            <stop stop-color="#B17EFF" />
            <stop offset="0.9999" stop-color="#DAC1FF" />
        </linearGradient>
        <linearGradient id="paint2_linear_1774_40127" x1="19.9615" y1="14.336" x2="13.2131" y2="12.4877"
            gradientUnits="userSpaceOnUse">
            <stop stop-color="#B17EFF" />
            <stop offset="0.9999" stop-color="#DAC1FF" />
        </linearGradient>
    </defs>
</svg>