<svg width="18" height="20" viewBox="0 0 18 20" fill="none" xmlns="http://www.w3.org/2000/svg">
<path fill-rule="evenodd" clip-rule="evenodd" d="M8.99982 0C5.53654 0 2.7207 2.84095 2.7207 6.34517C2.7207 7.53215 3.2435 9.00472 4.00443 10.4736C5.6798 13.708 8.47052 16.9657 8.47052 16.9657C8.53601 17.042 8.61722 17.1032 8.70858 17.1452C8.79994 17.1871 8.89929 17.2089 8.99982 17.2089C9.10036 17.2089 9.19971 17.1871 9.29107 17.1452C9.38242 17.1032 9.46363 17.042 9.52913 16.9657C9.52913 16.9657 12.3199 13.708 13.9952 10.4736C14.7562 9.00472 15.2789 7.53215 15.2789 6.34517C15.2789 2.84095 12.4631 0 8.99982 0ZM8.99982 3.72096C8.3333 3.73894 7.70011 4.01634 7.23504 4.49413C6.76996 4.97192 6.50973 5.61236 6.50973 6.27912C6.50973 6.94589 6.76996 7.58632 7.23504 8.06411C7.70011 8.5419 8.3333 8.8193 8.99982 8.83728C9.66635 8.8193 10.2995 8.5419 10.7646 8.06411C11.2297 7.58632 11.4899 6.94589 11.4899 6.27912C11.4899 5.61236 11.2297 4.97192 10.7646 4.49413C10.2995 4.01634 9.66635 3.73894 8.99982 3.72096Z" fill="url(#paint0_linear_1424_12443)"/>
<path fill-rule="evenodd" clip-rule="evenodd" d="M13.4502 15.0018C14.2065 15.2288 14.8298 15.5097 15.2605 15.839C15.5395 16.0511 15.7442 16.2586 15.7442 16.5116C15.7442 16.6604 15.6595 16.7953 15.5405 16.9302C15.3433 17.1525 15.0502 17.3525 14.6874 17.5386C13.4056 18.1944 11.333 18.6046 8.99995 18.6046C6.66691 18.6046 4.59434 18.1944 3.31246 17.5386C2.94967 17.3525 2.65665 17.1525 2.45943 16.9302C2.34036 16.7953 2.25571 16.6604 2.25571 16.5116C2.25571 16.2586 2.46036 16.0511 2.73944 15.839C3.17014 15.5097 3.7934 15.2288 4.54968 15.0018C4.72695 14.9485 4.87578 14.827 4.96345 14.664C5.05111 14.5009 5.07042 14.3098 5.01713 14.1325C4.96384 13.9552 4.84231 13.8064 4.67929 13.7187C4.51626 13.6311 4.32508 13.6118 4.14782 13.665C2.99618 14.012 2.10129 14.4874 1.56361 15.013C1.09105 15.4734 0.860352 15.9888 0.860352 16.5116C0.860352 17.1646 1.22966 17.8158 1.98036 18.359C3.29758 19.3116 5.94318 20 8.99995 20C12.0567 20 14.7023 19.3116 16.0195 18.359C16.7702 17.8158 17.1396 17.1646 17.1396 16.5116C17.1396 15.9888 16.9089 15.4734 16.4363 15.013C15.8986 14.4874 15.0037 14.012 13.8521 13.665C13.7643 13.6387 13.6722 13.6298 13.581 13.639C13.4898 13.6482 13.4013 13.6753 13.3206 13.7187C13.2399 13.7621 13.1685 13.821 13.1105 13.892C13.0526 13.963 13.0092 14.0447 12.9828 14.1325C12.9564 14.2203 12.9475 14.3124 12.9568 14.4036C12.966 14.4948 12.9931 14.5832 13.0365 14.664C13.0799 14.7447 13.1387 14.8161 13.2097 14.874C13.2807 14.932 13.3624 14.9754 13.4502 15.0018Z" fill="url(#paint1_linear_1424_12443)"/>
<defs>
<linearGradient id="paint0_linear_1424_12443" x1="14.6651" y1="15.3924" x2="-0.0202015" y2="11.9926" gradientUnits="userSpaceOnUse">
<stop stop-color="#7B3EFF"/>
<stop offset="1" stop-color="#B67DFF"/>
</linearGradient>
<linearGradient id="paint1_linear_1424_12443" x1="16.3438" y1="19.3282" x2="4.25011" y2="9.51478" gradientUnits="userSpaceOnUse">
<stop stop-color="#7B3EFF"/>
<stop offset="1" stop-color="#B67DFF"/>
</linearGradient>
</defs>
</svg>
