<svg width="20" height="20" viewBox="0 0 20 20" fill="none" xmlns="http://www.w3.org/2000/svg">
    <g clip-path="url(#clip0_1691_14384)">
        <path fill-rule="evenodd" clip-rule="evenodd"
            d="M10.972 17.7507C10.9719 18.0072 10.8699 18.2532 10.6885 18.4346C10.5071 18.616 10.2611 18.7179 10.0045 18.7179C9.74804 18.7178 9.50208 18.6159 9.32072 18.4345C9.13935 18.2531 9.0374 18.0072 9.03728 17.7507C9.03254 17.5633 8.95478 17.3852 8.82059 17.2544C8.6864 17.1236 8.50639 17.0503 8.31897 17.0503C8.13155 17.0503 7.95154 17.1236 7.81735 17.2544C7.68316 17.3852 7.6054 17.5633 7.60066 17.7507C7.60066 19.0774 8.67778 20.1546 10.0045 20.1546C11.3315 20.1546 12.4086 19.0774 12.4086 17.7507C12.4039 17.5633 12.3261 17.3852 12.1919 17.2544C12.0577 17.1236 11.8777 17.0503 11.6903 17.0503C11.5029 17.0503 11.3229 17.1236 11.1887 17.2544C11.0545 17.3852 10.9768 17.5633 10.972 17.7507ZM12.6983 3.27412V2.15494C12.6983 1.58341 12.4712 1.03529 12.0671 0.631166C11.663 0.227037 11.1148 0 10.5433 0H9.46597C8.89445 0 8.34633 0.227037 7.9422 0.631166C7.53807 1.03529 7.31104 1.58341 7.31104 2.15494V3.27412C7.31578 3.46148 7.39353 3.63958 7.52773 3.77042C7.66192 3.90126 7.84192 3.97449 8.02935 3.97449C8.21677 3.97449 8.39677 3.90126 8.53097 3.77042C8.66516 3.63958 8.74292 3.46148 8.74766 3.27412V2.15494C8.74766 1.96443 8.82334 1.78172 8.95805 1.64701C9.09276 1.5123 9.27546 1.43662 9.46597 1.43662H10.5433C10.7338 1.43662 10.9165 1.5123 11.0512 1.64701C11.186 1.78172 11.2616 1.96443 11.2616 2.15494V3.27412C11.2664 3.46148 11.3441 3.63958 11.4783 3.77042C11.6125 3.90126 11.7925 3.97449 11.9799 3.97449C12.1674 3.97449 12.3474 3.90126 12.4816 3.77042C12.6158 3.63958 12.6935 3.46148 12.6983 3.27412Z"
            fill="url(#paint0_linear_1691_14384)" />
        <path fill-rule="evenodd" clip-rule="evenodd"
            d="M15.9561 6.07274L3.5002 14.4999C2.00049 15.4999 2.50049 17.9999 4.69456 17.9995H15.3148C15.8363 17.9992 16.3364 17.7919 16.7052 17.4232C17.0739 17.0544 17.2812 16.5543 17.2815 16.0328V16.0312C17.2815 15.7205 17.2079 15.4142 17.0667 15.1375C16.9256 14.8607 16.7209 14.6213 16.4694 14.4389V8.30215C16.4694 7.51419 16.2869 6.76002 15.9561 6.07274ZM3.53975 8.30215L3.5002 14.4999L15.9561 6.07274C14.0002 2.99988 11.5798 2.58691 10.0046 2.58691C6.41093 2.58691 3.53975 5.1772 3.53975 8.30215Z"
            fill="url(#paint1_linear_1691_14384)" />
    </g>
    <defs>
        <linearGradient id="paint0_linear_1691_14384" x1="16.7891" y1="18.0271" x2="4.80634"
            y2="16.1476" gradientUnits="userSpaceOnUse">
            <stop stop-color="#7B3EFF" />
            <stop offset="1" stop-color="#B67DFF" />
        </linearGradient>
        <linearGradient id="paint1_linear_1691_14384" x1="16.5657" y1="16.3726" x2="0.0283942"
            y2="11.3886" gradientUnits="userSpaceOnUse">
            <stop stop-color="#7B3EFF" />
            <stop offset="1" stop-color="#B67DFF" />
        </linearGradient>
        <clipPath id="clip0_1691_14384">
            <rect width="20" height="20" fill="white" />
        </clipPath>
    </defs>
</svg>
    