<svg width="20" height="20" viewBox="0 0 20 20" fill="none" xmlns="http://www.w3.org/2000/svg">
<path d="M13.1249 12.0624L9.30329 15.8841C9.06879 16.1184 8.75079 16.2501 8.41924 16.25C8.0877 16.2499 7.76976 16.1181 7.53537 15.8836C7.30099 15.6491 7.16936 15.3311 7.16943 14.9996C7.16951 14.6681 7.30129 14.3501 7.53579 14.1157L11.3574 10.2949C11.3963 10.2562 11.427 10.2102 11.448 10.1596C11.469 10.109 11.4799 10.0547 11.4799 9.99989C11.4799 9.94509 11.469 9.89082 11.448 9.8402C11.427 9.78958 11.3963 9.7436 11.3574 9.70489L7.53579 5.88406C7.30129 5.64968 7.16951 5.33174 7.16943 5.00019C7.16936 4.66864 7.30099 4.35064 7.53537 4.11614C7.76976 3.88165 8.0877 3.74987 8.41924 3.74979C8.75079 3.74971 9.06879 3.88134 9.30329 4.11573L13.1249 7.93739C13.671 8.48492 13.9776 9.22663 13.9776 9.99989C13.9776 10.7732 13.671 11.5149 13.1249 12.0624V12.0624Z" fill="url(#paint0_linear_1036_3565)"/>
<defs>
<linearGradient id="paint0_linear_1036_3565" x1="13.6448" y1="5.06926" x2="5.49998" y2="6.47655" gradientUnits="userSpaceOnUse">
<stop stop-color="#7B3EFF"/>
<stop offset="1" stop-color="#B67DFF"/>
</linearGradient>
</defs>
</svg>
