<svg width="22" height="22" viewBox="0 0 22 22" fill="none" xmlns="http://www.w3.org/2000/svg">
    <path
        d="M8.71131 2.62439C6.43305 2.62439 4.58087 4.47656 4.58087 6.75482C4.58087 8.98961 6.3287 10.7983 8.60696 10.8766C8.67652 10.8679 8.74609 10.8679 8.79826 10.8766C8.81565 10.8766 8.82435 10.8766 8.84174 10.8766C8.85044 10.8766 8.85044 10.8766 8.85913 10.8766C11.0852 10.7983 12.833 8.98961 12.8417 6.75482C12.8417 4.47656 10.9896 2.62439 8.71131 2.62439Z"
        fill="white" />
    <path
        d="M13.1287 13.1896C10.7026 11.5722 6.74609 11.5722 4.30261 13.1896C3.19826 13.9287 2.58957 14.9287 2.58957 15.9983C2.58957 17.0679 3.19826 18.0592 4.29392 18.7896C5.51131 19.607 7.11131 20.0157 8.71131 20.0157C10.3113 20.0157 11.9113 19.607 13.1287 18.7896C14.2244 18.0505 14.833 17.0592 14.833 15.9809C14.8244 14.9113 14.2244 13.92 13.1287 13.1896Z"
        fill="white" />
    <path
        d="M18.2678 7.26784C18.407 8.9548 17.207 10.4331 15.5461 10.6331C15.5374 10.6331 15.5374 10.6331 15.5287 10.6331H15.5026C15.4504 10.6331 15.3983 10.6331 15.3548 10.6504C14.5113 10.6939 13.7374 10.4244 13.1548 9.92871C14.0504 9.12871 14.5635 7.92871 14.4591 6.62436C14.3983 5.92001 14.1548 5.27654 13.7896 4.72871C14.12 4.56349 14.5026 4.45915 14.8939 4.42436C16.5983 4.27654 18.12 5.5461 18.2678 7.26784Z"
        fill="white" />
    <path
        d="M20.007 15.3113C19.9374 16.1548 19.3983 16.8852 18.4939 17.3809C17.6244 17.8591 16.5287 18.0852 15.4417 18.0591C16.0678 17.4939 16.4331 16.7896 16.5026 16.0418C16.5896 14.9635 16.0765 13.9287 15.0504 13.1026C14.4678 12.6418 13.7896 12.2765 13.0504 12.007C14.9722 11.4505 17.3896 11.8244 18.8765 13.0244C19.6765 13.6678 20.0852 14.4765 20.007 15.3113Z"
        fill="white" />
</svg>
    