<svg width="21" height="21" viewBox="0 0 21 21" fill="none" xmlns="http://www.w3.org/2000/svg">
    <path
        d="M7.93482 2.1015C5.75149 2.1015 3.97649 3.8765 3.97649 6.05983C3.97649 8.2015 5.65149 9.93483 7.83482 10.0098C7.90149 10.0015 7.96815 10.0015 8.01815 10.0098C8.03482 10.0098 8.04315 10.0098 8.05982 10.0098C8.06815 10.0098 8.06815 10.0098 8.07649 10.0098C10.2098 9.93483 11.8848 8.2015 11.8932 6.05983C11.8932 3.8765 10.1182 2.1015 7.93482 2.1015Z"
        fill="url(#paint0_linear_1798_1899)" />
    <path
        d="M12.1681 12.2264C9.84315 10.6764 6.05148 10.6764 3.70981 12.2264C2.65148 12.9347 2.06815 13.8931 2.06815 14.9181C2.06815 15.9431 2.65148 16.8931 3.70148 17.5931C4.86815 18.3764 6.40148 18.7681 7.93481 18.7681C9.46815 18.7681 11.0015 18.3764 12.1681 17.5931C13.2181 16.8847 13.8015 15.9347 13.8015 14.9014C13.7931 13.8764 13.2181 12.9264 12.1681 12.2264Z"
        fill="url(#paint1_linear_1798_1899)" />
    <path
        d="M17.0931 6.55143C17.2265 8.1681 16.0765 9.58477 14.4848 9.77643C14.4765 9.77643 14.4765 9.77643 14.4681 9.77643H14.4431C14.3931 9.77643 14.3431 9.77643 14.3015 9.7931C13.4931 9.83476 12.7515 9.57643 12.1931 9.10143C13.0515 8.33476 13.5431 7.18477 13.4431 5.93477C13.3848 5.25977 13.1515 4.6431 12.8015 4.1181C13.1181 3.95977 13.4848 3.85977 13.8598 3.82643C15.4931 3.68477 16.9515 4.90143 17.0931 6.55143Z"
        fill="url(#paint2_linear_1798_1899)" />
    <path
        d="M18.7598 14.2599C18.6931 15.0682 18.1765 15.7682 17.3098 16.2432C16.4765 16.7015 15.4265 16.9182 14.3848 16.8932C14.9848 16.3515 15.3348 15.6765 15.4015 14.9599C15.4848 13.9265 14.9931 12.9349 14.0098 12.1432C13.4515 11.7015 12.8015 11.3515 12.0931 11.0932C13.9348 10.5599 16.2515 10.9182 17.6765 12.0682C18.4431 12.6849 18.8348 13.4599 18.7598 14.2599Z"
        fill="url(#paint3_linear_1798_1899)" />
    <defs>
        <linearGradient id="paint0_linear_1798_1899" x1="11.5062" y1="9.17506" x2="2.64605" y2="6.3613"
            gradientUnits="userSpaceOnUse">
            <stop stop-color="#7B3EFF" />
            <stop offset="1" stop-color="#B67DFF" />
        </linearGradient>
        <linearGradient id="paint1_linear_1798_1899" x1="13.2279" y1="17.9549" x2="1.50783" y2="12.2922"
            gradientUnits="userSpaceOnUse">
            <stop stop-color="#7B3EFF" />
            <stop offset="1" stop-color="#B67DFF" />
        </linearGradient>
        <linearGradient id="paint2_linear_1798_1899" x1="16.8636" y1="9.16601" x2="11.1978" y2="7.6906"
            gradientUnits="userSpaceOnUse">
            <stop stop-color="#7B3EFF" />
            <stop offset="1" stop-color="#B67DFF" />
        </linearGradient>
        <linearGradient id="paint3_linear_1798_1899" x1="18.4426" y1="16.2572" x2="11.1172" y2="13.6903"
            gradientUnits="userSpaceOnUse">
            <stop stop-color="#7B3EFF" />
            <stop offset="1" stop-color="#B67DFF" />
        </linearGradient>
    </defs>
</svg>