<svg width="20" height="20" viewBox="0 0 20 20" fill="none" xmlns="http://www.w3.org/2000/svg">
<path d="M16.8183 3.48523C15.7011 3.36628 14.6014 3.11766 13.5417 2.74439C12.5692 2.40071 11.6363 1.95371 10.7592 1.41106C10.5303 1.27217 10.2677 1.19873 10 1.19873C9.73229 1.19873 9.4697 1.27217 9.24083 1.41106L9.24 1.41189C8.36301 1.9541 7.43047 2.40082 6.45833 2.74439C5.39909 3.1175 4.30003 3.36612 3.18333 3.48523C2.82462 3.52176 2.49222 3.69011 2.25052 3.95768C2.00881 4.22524 1.875 4.57299 1.875 4.93356V9.26273C1.87561 10.8602 2.30315 12.4286 3.11337 13.8053C3.9236 15.1821 5.08706 16.3174 6.48333 17.0936L9.29167 18.6544C9.50793 18.776 9.75188 18.8399 10 18.8399C10.2481 18.8399 10.4921 18.776 10.7083 18.6544L13.5167 17.0936C14.9129 16.3174 16.0764 15.1821 16.8866 13.8053C17.6969 12.4286 18.1244 10.8602 18.125 9.26273V4.93439C18.1255 4.57379 17.9921 4.22586 17.7507 3.95798C17.5093 3.6901 17.177 3.52217 16.8183 3.48523ZM13.3158 8.48689L10.1908 11.8202C10.0424 11.9786 9.83794 12.0727 9.62109 12.0825C9.40425 12.0923 9.19215 12.017 9.03 11.8727L7.155 10.2061C7.06906 10.1346 6.99837 10.0466 6.94713 9.9473C6.8959 9.84798 6.86516 9.73937 6.85675 9.62793C6.84834 9.51649 6.86244 9.4045 6.89819 9.29862C6.93395 9.19274 6.99064 9.09513 7.06488 9.0116C7.13913 8.92808 7.22942 8.86034 7.33038 8.81241C7.43134 8.76449 7.5409 8.73736 7.65256 8.73265C7.76422 8.72793 7.87568 8.74572 7.98032 8.78496C8.08496 8.8242 8.18064 8.88409 8.26167 8.96106L9.53083 10.0886L12.1008 7.34689C12.1788 7.26394 12.2729 7.19779 12.3774 7.15251C12.4819 7.10722 12.5945 7.08376 12.7083 7.08356C12.8709 7.08348 13.03 7.13095 13.1659 7.22012C13.3018 7.3093 13.4087 7.43629 13.4734 7.58545C13.538 7.73461 13.5576 7.89943 13.5298 8.0596C13.5019 8.21977 13.427 8.3683 13.3158 8.48689Z" fill="url(#paint0_linear_1048_3646)"/>
<defs>
<linearGradient id="paint0_linear_1048_3646" x1="18" y1="14" x2="4.41664" y2="2.34848" gradientUnits="userSpaceOnUse">
<stop stop-color="#B17EFF"/>
<stop offset="0.9999" stop-color="#DAC1FF"/>
</linearGradient>
</defs>
</svg>
