<svg width="20" height="20" viewBox="0 0 20 20" fill="none" xmlns="http://www.w3.org/2000/svg">
    <g clip-path="url(#clip0_1279_1452)">
        <path fill-rule="evenodd" clip-rule="evenodd"
            d="M9.99995 0C6.53666 0 3.72083 2.84095 3.72083 6.34517C3.72083 7.53215 4.24362 9.00472 5.00456 10.4736C6.67992 13.708 9.47064 16.9657 9.47064 16.9657C9.53614 17.042 9.61735 17.1032 9.7087 17.1452C9.80006 17.1871 9.89941 17.2089 9.99995 17.2089C10.1005 17.2089 10.1998 17.1871 10.2912 17.1452C10.3825 17.1032 10.4638 17.042 10.5293 16.9657C10.5293 16.9657 13.32 13.708 14.9953 10.4736C15.7563 9.00472 16.2791 7.53215 16.2791 6.34517C16.2791 2.84095 13.4632 0 9.99995 0ZM9.99995 3.72096C9.33342 3.73894 8.70023 4.01634 8.23516 4.49413C7.77008 4.97192 7.50985 5.61236 7.50985 6.27912C7.50985 6.94589 7.77008 7.58632 8.23516 8.06411C8.70023 8.5419 9.33342 8.8193 9.99995 8.83728C10.6665 8.8193 11.2997 8.5419 11.7647 8.06411C12.2298 7.58632 12.49 6.94589 12.49 6.27912C12.49 5.61236 12.2298 4.97192 11.7647 4.49413C11.2997 4.01634 10.6665 3.73894 9.99995 3.72096Z"
            fill="url(#paint0_linear_1279_1452)" />
        <path fill-rule="evenodd" clip-rule="evenodd"
            d="M14.4502 15.0019C15.2065 15.2288 15.8298 15.5098 16.2605 15.8391C16.5395 16.0512 16.7442 16.2586 16.7442 16.5116C16.7442 16.6605 16.6595 16.7954 16.5405 16.9303C16.3433 17.1526 16.0502 17.3526 15.6874 17.5386C14.4056 18.1944 12.333 18.6047 9.99995 18.6047C7.66691 18.6047 5.59434 18.1944 4.31246 17.5386C3.94967 17.3526 3.65665 17.1526 3.45943 16.9303C3.34036 16.7954 3.25571 16.6605 3.25571 16.5116C3.25571 16.2586 3.46036 16.0512 3.73944 15.8391C4.17014 15.5098 4.7934 15.2288 5.54968 15.0019C5.72695 14.9486 5.87578 14.827 5.96345 14.664C6.05111 14.501 6.07042 14.3098 6.01713 14.1326C5.96384 13.9553 5.84231 13.8065 5.67929 13.7188C5.51626 13.6311 5.32508 13.6118 5.14782 13.6651C3.99618 14.0121 3.10129 14.4874 2.56361 15.013C2.09105 15.4735 1.86035 15.9889 1.86035 16.5116C1.86035 17.1647 2.22966 17.8158 2.98036 18.3591C4.29758 19.3117 6.94318 20 9.99995 20C13.0567 20 15.7023 19.3117 17.0195 18.3591C17.7702 17.8158 18.1396 17.1647 18.1396 16.5116C18.1396 15.9889 17.9089 15.4735 17.4363 15.013C16.8986 14.4874 16.0037 14.0121 14.8521 13.6651C14.7643 13.6387 14.6722 13.6299 14.581 13.6391C14.4898 13.6483 14.4013 13.6754 14.3206 13.7188C14.2399 13.7622 14.1685 13.8211 14.1105 13.8921C14.0526 13.9631 14.0092 14.0448 13.9828 14.1326C13.9564 14.2203 13.9475 14.3124 13.9568 14.4036C13.966 14.4948 13.9931 14.5833 14.0365 14.664C14.0799 14.7447 14.1387 14.8161 14.2097 14.8741C14.2807 14.9321 14.3624 14.9755 14.4502 15.0019Z"
            fill="url(#paint1_linear_1279_1452)" />
    </g>
    <defs>
        <linearGradient id="paint0_linear_1279_1452" x1="15.6652" y1="15.3924" x2="0.979921"
            y2="11.9926" gradientUnits="userSpaceOnUse">
            <stop stop-color="#7B3EFF" />
            <stop offset="1" stop-color="#B67DFF" />
        </linearGradient>
        <linearGradient id="paint1_linear_1279_1452" x1="17.3438" y1="19.3282" x2="5.25011"
            y2="9.51484" gradientUnits="userSpaceOnUse">
            <stop stop-color="#7B3EFF" />
            <stop offset="1" stop-color="#B67DFF" />
        </linearGradient>
        <clipPath id="clip0_1279_1452">
            <rect width="20" height="20" fill="white" />
        </clipPath>
    </defs>
</svg>
    