<svg width="12" height="12" viewBox="0 0 12 12" fill="none" xmlns="http://www.w3.org/2000/svg">
    <path fill-rule="evenodd" clip-rule="evenodd"
        d="M10.3619 9.07736H1.63823C1.44407 9.07736 1.28534 9.24397 1.28534 9.44777V9.82947C1.28534 10.0333 1.44407 10.2 1.63823 10.2H10.3619C10.556 10.2 10.7149 10.0333 10.7149 9.82947V9.44777C10.7149 9.24393 10.5559 9.07736 10.3619 9.07736ZM12 3.20308C12 3.61668 11.6784 3.95424 11.2842 3.95424C11.2395 3.95424 11.1955 3.94949 11.1528 3.94114L10.3876 8.23791C10.3792 8.23766 10.3704 8.23766 10.3619 8.23766H1.63823C1.62965 8.23766 1.62106 8.23766 1.61236 8.23791L0.847349 3.94114C0.803972 3.94973 0.759934 3.95412 0.715791 3.95424C0.321748 3.95424 0 3.61668 0 3.20308C0 2.78947 0.321708 2.45175 0.715791 2.45175C1.10987 2.45175 1.43154 2.78905 1.43154 3.20308C1.43154 3.37245 1.3774 3.5291 1.28672 3.655L3.43492 5.35683L5.71153 2.87164C5.40002 2.74851 5.17758 2.43244 5.17758 2.06319C5.17758 1.58791 5.54689 1.20001 6.00004 1.20001C6.45319 1.20001 6.82262 1.58795 6.82262 2.06319C6.82262 2.4324 6.60002 2.74851 6.28851 2.87164L8.56501 5.35683L10.7132 3.655C10.6192 3.52498 10.5684 3.36627 10.5684 3.20308C10.5684 2.78905 10.8901 2.45175 11.2842 2.45175C11.6783 2.45175 12 2.78905 12 3.20308Z"
        fill="url(#paint0_linear_1424_11423)" />
    <defs>
        <linearGradient id="paint0_linear_1424_11423" x1="5.99996" y1="2.48432" x2="5.99996" y2="8.91484"
            gradientUnits="userSpaceOnUse">
            <stop stop-color="#FF742B" />
            <stop offset="1" stop-color="#FFBC10" />
        </linearGradient>
    </defs>
</svg>