<svg width="20" height="20" viewBox="0 0 20 20" fill="none" xmlns="http://www.w3.org/2000/svg">
<path d="M10 20C15.5228 20 20 15.5228 20 10C20 4.47715 15.5228 0 10 0C4.47715 0 0 4.47715 0 10C0 15.5228 4.47715 20 10 20Z" fill="url(#paint0_linear_1036_3640)"/>
<path d="M16.1299 8.00828C16.0961 7.9043 16.0339 7.81185 15.9504 7.74137C15.8668 7.6709 15.7652 7.62522 15.657 7.60949L12.1112 7.09426L10.5255 3.88129C10.4771 3.78325 10.4023 3.7007 10.3094 3.64299C10.2166 3.58527 10.1094 3.55468 10.0001 3.55469C9.89074 3.55469 9.78359 3.58529 9.69074 3.64301C9.59789 3.70073 9.52304 3.78328 9.47466 3.88133L7.88895 7.09429L4.34321 7.60953C4.23502 7.62525 4.13339 7.67094 4.0498 7.74141C3.96622 7.81188 3.90401 7.90433 3.87023 8.00831C3.83645 8.11229 3.83243 8.22364 3.85863 8.32979C3.88483 8.43593 3.9402 8.53263 4.01849 8.60894L6.58423 11.1099L5.97853 14.6413C5.96006 14.749 5.9721 14.8598 6.0133 14.9611C6.05449 15.0623 6.1232 15.1501 6.21164 15.2143C6.30009 15.2786 6.40475 15.3168 6.51379 15.3247C6.62283 15.3326 6.73191 15.3098 6.82868 15.259L10.0001 13.5917L13.1715 15.259C13.2683 15.3098 13.3773 15.3326 13.4864 15.3247C13.5954 15.3168 13.7001 15.2786 13.7885 15.2143C13.877 15.1501 13.9457 15.0623 13.9869 14.9611C14.0281 14.8598 14.0401 14.749 14.0217 14.6413L13.416 11.1099L15.9817 8.60894C16.06 8.53262 16.1153 8.43591 16.1415 8.32977C16.1677 8.22362 16.1637 8.11226 16.1299 8.00828Z" fill="white"/>
<defs>
<linearGradient id="paint0_linear_1036_3640" x1="19.8462" y1="14.5129" x2="4.30447" y2="0.0402953" gradientUnits="userSpaceOnUse">
<stop stop-color="#B17EFF"/>
<stop offset="0.9999" stop-color="#DAC1FF"/>
</linearGradient>
</defs>
</svg>
