<svg width="20" height="20" viewBox="0 0 20 20" fill="none" xmlns="http://www.w3.org/2000/svg">
<g clip-path="url(#clip0_1784_40342)">
<path d="M8.63953 15.3428C8.59192 15.1602 8.50735 14.9893 8.39107 14.8406C8.27479 14.692 8.12926 14.5688 7.96348 14.4787C7.79717 14.3888 7.61421 14.334 7.42589 14.3177C7.23757 14.3014 7.04791 14.3239 6.86863 14.3838L4.45508 15.1937C4.09422 15.3149 3.79691 15.5831 3.63945 15.9297C3.48199 16.2763 3.47555 16.6767 3.62172 17.0281C3.75316 17.3442 3.87758 17.6417 3.99215 17.9145C4.40008 18.8858 5.35586 19.4838 6.36301 19.4838C6.64953 19.4846 6.94449 19.4332 7.22539 19.3334C8.53199 18.8949 9.2559 17.516 8.8734 16.1941C8.79149 15.9114 8.71353 15.6276 8.63953 15.3428ZM7.67473 11.3822C7.66016 11.0087 7.66086 10.6579 7.66152 10.3186C7.66316 9.47581 7.66488 8.60428 7.43336 7.37659C7.06945 5.44725 6.15359 3.92608 4.92055 3.20315C4.13836 2.74452 3.29391 2.64674 2.47867 2.92034C1.38496 3.28737 0.583125 4.13034 0.220937 5.29393C-0.148867 6.48186 -0.053047 7.9776 0.497929 9.61948C0.785351 10.4759 1.21262 11.6246 1.76789 13.0338C1.9807 13.5739 2.49785 13.9069 3.04894 13.9069C3.19437 13.9069 3.34226 13.8837 3.48746 13.8349L6.73691 12.7444C7.31281 12.5511 7.69844 11.991 7.67473 11.3822ZM15.545 12.9413C15.5449 12.9413 15.5449 12.9413 15.545 12.9413L13.1314 12.1313C12.9521 12.0714 12.7624 12.0489 12.5741 12.0653C12.3858 12.0816 12.2029 12.1363 12.0366 12.2262C11.8708 12.3163 11.7252 12.4395 11.6089 12.5882C11.4926 12.7368 11.4081 12.9077 11.3605 13.0903C11.2865 13.3752 11.2085 13.659 11.1266 13.9416C10.7441 15.2635 11.468 16.6425 12.7745 17.081C13.0555 17.1808 13.3503 17.2322 13.637 17.2314C14.644 17.2314 15.5999 16.6334 16.0078 15.6621C16.1224 15.3893 16.2468 15.0918 16.3783 14.7757C16.4506 14.6012 16.4863 14.4136 16.4833 14.2247C16.4802 14.0358 16.4385 13.8495 16.3606 13.6774C16.2822 13.5054 16.1694 13.3514 16.0291 13.2248C15.8888 13.0982 15.724 13.0017 15.545 12.9413ZM19.7791 3.04147C19.4168 1.87788 18.6151 1.03495 17.5213 0.667875C16.706 0.394281 15.8617 0.492055 15.0795 0.950688C13.8464 1.67362 12.9305 3.19479 12.5666 5.12413C12.3351 6.35178 12.3368 7.22327 12.3385 8.06604C12.3391 8.40534 12.3398 8.75623 12.3253 9.12987C12.3016 9.73858 12.6872 10.2987 13.2631 10.492L16.5125 11.5825C16.6538 11.6301 16.8019 11.6544 16.951 11.6544C17.5021 11.6544 18.0193 11.3214 18.2321 10.7814C18.7872 9.3726 19.2145 8.22385 19.502 7.36702C20.053 5.72514 20.1489 4.2294 19.7791 3.04147Z" fill="#6C6C6C"/>
</g>
<defs>
<clipPath id="clip0_1784_40342">
<rect width="20" height="20" fill="white"/>
</clipPath>
</defs>
</svg>
