<svg width="20" height="20" viewBox="0 0 20 20" fill="none" xmlns="http://www.w3.org/2000/svg">
    <path
        d="M18.091 7.34927C16.2819 7.34927 15.5422 6.12879 16.4418 4.63179C16.9615 3.7641 16.6517 2.65804 15.7421 2.16222L14.013 1.21826C13.2234 0.770112 12.2039 1.03709 11.7341 1.79036L11.6242 1.97152C10.7246 3.46852 9.24538 3.46852 8.33583 1.97152L8.22589 1.79036C7.77611 1.03709 6.75662 0.770112 5.96702 1.21826L4.23788 2.16222C3.32834 2.65804 3.01849 3.77364 3.53823 4.64133C4.44778 6.12879 3.70815 7.34927 1.89905 7.34927C0.85957 7.34927 0 8.15974 0 9.16092V10.8391C0 11.8307 0.849575 12.6507 1.89905 12.6507C3.70815 12.6507 4.44778 13.8712 3.53823 15.3682C3.01849 16.2359 3.32834 17.342 4.23788 17.8378L5.96702 18.7817C6.75662 19.2299 7.77611 18.9629 8.24588 18.2096L8.35582 18.0285C9.25537 16.5315 10.7346 16.5315 11.6442 18.0285L11.7541 18.2096C12.2239 18.9629 13.2434 19.2299 14.033 18.7817L15.7621 17.8378C16.6717 17.342 16.9815 16.2264 16.4618 15.3682C15.5522 13.8712 16.2919 12.6507 18.101 12.6507C19.1404 12.6507 20 11.8403 20 10.8391V9.16092C19.99 8.16928 19.1404 7.34927 18.091 7.34927ZM9.995 13.0989C8.2059 13.0989 6.74663 11.7068 6.74663 10C6.74663 8.29323 8.2059 6.90112 9.995 6.90112C11.7841 6.90112 13.2434 8.29323 13.2434 10C13.2434 11.7068 11.7841 13.0989 9.995 13.0989Z"
        fill="white" />
</svg>