<svg width="26" height="26" viewBox="0 0 26 26" fill="none" xmlns="http://www.w3.org/2000/svg">
    <path
        d="M21.4375 10.1042C19.5521 10.1042 18.7813 8.77084 19.7188 7.13542C20.2605 6.1875 19.9375 4.97917 18.9896 4.4375L17.1875 3.40626C16.3646 2.91667 15.3021 3.20834 14.8125 4.03126L14.698 4.22917C13.7605 5.86459 12.2188 5.86459 11.2709 4.22917L11.1563 4.03126C10.6875 3.20834 9.62504 2.91667 8.80212 3.40626L7.00004 4.4375C6.05212 4.97917 5.72921 6.19792 6.27087 7.14584C7.21879 8.77084 6.44796 10.1042 4.56254 10.1042C3.47921 10.1042 2.58337 10.9896 2.58337 12.0833V13.9167C2.58337 15 3.46879 15.8958 4.56254 15.8958C6.44796 15.8958 7.21879 17.2292 6.27087 18.8646C5.72921 19.8125 6.05212 21.0208 7.00004 21.5625L8.80212 22.5938C9.62504 23.0833 10.6875 22.7917 11.1771 21.9688L11.2917 21.7708C12.2292 20.1354 13.7709 20.1354 14.7188 21.7708L14.8334 21.9688C15.323 22.7917 16.3855 23.0833 17.2084 22.5938L19.0105 21.5625C19.9584 21.0208 20.2813 19.8021 19.7396 18.8646C18.7917 17.2292 19.5625 15.8958 21.448 15.8958C22.5313 15.8958 23.4271 15.0104 23.4271 13.9167V12.0833C23.4167 11 22.5313 10.1042 21.4375 10.1042ZM13 16.3854C11.1355 16.3854 9.61462 14.8646 9.61462 13C9.61462 11.1354 11.1355 9.61459 13 9.61459C14.8646 9.61459 16.3855 11.1354 16.3855 13C16.3855 14.8646 14.8646 16.3854 13 16.3854Z"
        fill="url(#paint0_linear_173_6395)" />
    <defs>
        <linearGradient id="paint0_linear_173_6395" x1="22.4082" y1="20.7565" x2="-0.663386"
            y2="12.9982" gradientUnits="userSpaceOnUse">
            <stop stop-color="#7B3EFF" />
            <stop offset="1" stop-color="#B67DFF" />
        </linearGradient>
    </defs>
</svg>
    