<svg width="20" height="20" viewBox="0 0 20 20" fill="none" xmlns="http://www.w3.org/2000/svg">
<path d="M19.8284 0.171651C19.7473 0.0905388 19.6442 0.0350111 19.5319 0.0119568C19.4195 -0.0110974 19.3029 -0.000663721 19.1964 0.0419636L0.368325 7.57314C0.262892 7.61531 0.171986 7.68721 0.106661 7.78009C0.0413369 7.87298 0.00440977 7.98284 0.000370856 8.09632C-0.00366806 8.20981 0.0253553 8.32202 0.0839112 8.41931C0.142467 8.5166 0.228032 8.59479 0.3302 8.64435L7.75469 12.2452L11.3556 19.6697C11.4051 19.7719 11.4833 19.8575 11.5805 19.9161C11.6778 19.9747 11.7901 20.0037 11.9036 19.9997C12.0171 19.9957 12.1269 19.9587 12.2198 19.8934C12.3127 19.828 12.3846 19.7371 12.4268 19.6317L19.9581 0.803604C20.0007 0.697129 20.0111 0.580501 19.988 0.46817C19.965 0.355838 19.9094 0.252741 19.8284 0.171651Z" fill="url(#paint0_linear_1048_3654)"/>
<path d="M19.8284 0.171875L7.75476 12.2454L11.3556 19.6699C11.4052 19.7721 11.4833 19.8577 11.5806 19.9163C11.6779 19.9749 11.7901 20.0039 11.9036 19.9999C12.0171 19.9959 12.127 19.9589 12.2199 19.8936C12.3128 19.8282 12.3847 19.7373 12.4268 19.6318L19.9581 0.803828C20.0007 0.697353 20.0111 0.580725 19.988 0.468393C19.965 0.356062 19.9095 0.252965 19.8284 0.171875Z" fill="url(#paint1_linear_1048_3654)"/>
<defs>
<linearGradient id="paint0_linear_1048_3654" x1="19.8461" y1="14.513" x2="4.30441" y2="0.0403605" gradientUnits="userSpaceOnUse">
<stop stop-color="#B17EFF"/>
<stop offset="0.9999" stop-color="#DAC1FF"/>
</linearGradient>
<linearGradient id="paint1_linear_1048_3654" x1="19.9058" y1="14.5603" x2="6.5543" y2="6.88204" gradientUnits="userSpaceOnUse">
<stop stop-color="#C7A2FF"/>
<stop offset="0.9999" stop-color="#EBDEFF"/>
</linearGradient>
</defs>
</svg>
