<svg width="24" height="24" viewBox="0 0 24 24" fill="none" xmlns="http://www.w3.org/2000/svg">
<path d="M21 19H12H3C2.73478 19 2.48043 19.1054 2.29289 19.2929C2.10536 19.4804 2 19.7348 2 20C2 20.2652 2.10536 20.5196 2.29289 20.7071C2.48043 20.8946 2.73478 21 3 21H21C21.2652 21 21.5196 20.8946 21.7071 20.7071C21.8946 20.5196 22 20.2652 22 20C22 19.7348 21.8946 19.4804 21.7071 19.2929C21.5196 19.1054 21.2652 19 21 19ZM12 17.0058C11.7348 17.0058 11.4804 16.9004 11.2929 16.7129C11.1054 16.5254 11 16.271 11 16.0058V5.4158L7.71 8.7158C7.5217 8.9041 7.2663 9.00989 7 9.00989C6.7337 9.00989 6.4783 8.9041 6.29 8.7158C6.1017 8.52749 5.99591 8.2721 5.99591 8.0058C5.99591 7.7395 6.1017 7.4841 6.29 7.2958L11.29 2.2958C11.383 2.20207 11.4936 2.12767 11.6154 2.07691C11.7373 2.02614 11.868 2 12 2C12.132 2 12.2627 2.02614 12.3846 2.07691C12.5064 2.12767 12.617 2.20207 12.71 2.2958L17.71 7.2958C17.8032 7.38904 17.8772 7.49973 17.9277 7.62155C17.9781 7.74337 18.0041 7.87394 18.0041 8.0058C18.0041 8.13766 17.9781 8.26823 17.9277 8.39005C17.8772 8.51187 17.8032 8.62256 17.71 8.7158C17.6168 8.80904 17.5061 8.883 17.3842 8.93346C17.2624 8.98392 17.1319 9.00989 17 9.00989C16.8681 9.00989 16.7376 8.98392 16.6158 8.93346C16.4939 8.883 16.3832 8.80904 16.29 8.7158L13 5.4158V16.0058C13 16.271 12.8946 16.5254 12.7071 16.7129C12.5196 16.9004 12.2652 17.0058 12 17.0058Z" fill="white"/>
</svg>
