<svg width="28" height="28" viewBox="0 0 28 28" fill="none" xmlns="http://www.w3.org/2000/svg">
<path d="M9.62499 16.8874L14.9753 22.2377C15.3036 22.5658 15.7488 22.7501 16.213 22.75C16.6771 22.7499 17.1223 22.5654 17.4504 22.2371C17.7785 21.9088 17.9628 21.4636 17.9627 20.9994C17.9626 20.5353 17.7781 20.0902 17.4498 19.762L12.0995 14.4129C12.0452 14.3587 12.0021 14.2943 11.9727 14.2234C11.9432 14.1526 11.9281 14.0766 11.9281 13.9999C11.9281 13.9231 11.9432 13.8471 11.9727 13.7763C12.0021 13.7054 12.0452 13.641 12.0995 13.5869L17.4498 8.23768C17.7781 7.90954 17.9626 7.46443 17.9627 7.00026C17.9628 6.53609 17.7785 6.09089 17.4504 5.7626C17.1223 5.43431 16.6771 5.24981 16.213 5.2497C15.7488 5.24959 15.3036 5.43388 14.9753 5.76201L9.62499 11.1123C8.86055 11.8789 8.43127 12.9173 8.43127 13.9999C8.43127 15.0824 8.86055 16.1208 9.62499 16.8874Z" fill="url(#paint0_linear_466_2858)"/>
<defs>
<linearGradient id="paint0_linear_466_2858" x1="8.8972" y1="7.09696" x2="20.2999" y2="9.06717" gradientUnits="userSpaceOnUse">
<stop stop-color="#7B3EFF"/>
<stop offset="1" stop-color="#B67DFF"/>
</linearGradient>
</defs>
</svg>
