<svg width="36" height="36" viewBox="0 0 36 36" fill="none" xmlns="http://www.w3.org/2000/svg">
<g clip-path="url(#clip0_2767_3128)">
<path d="M22.3904 3.77295H22.5754C22.7238 5.60652 22.0239 6.97657 21.1734 7.96871C20.3388 8.954 19.1959 9.9096 17.3475 9.76461C17.2242 7.95729 17.9252 6.68886 18.7747 5.699C19.5624 4.77651 21.0067 3.95562 22.3904 3.77295ZM27.9859 22.8577V22.909C27.4664 24.4823 26.7255 25.8307 25.8212 27.082C24.9958 28.218 23.9842 29.7467 22.1781 29.7467C20.6174 29.7467 19.5807 28.7431 17.9812 28.7157C16.2892 28.6883 15.3587 29.5549 13.8117 29.7729H13.2842C12.1482 29.6085 11.2314 28.7089 10.5635 27.8983C8.59409 25.503 7.0722 22.409 6.78906 18.4495V17.2861C6.90894 14.4524 8.28584 12.1485 10.116 11.0319C11.0819 10.4382 12.4097 9.93244 13.8882 10.1585C14.5218 10.2567 15.1692 10.4736 15.7366 10.6882C16.2743 10.8949 16.9468 11.2614 17.5839 11.242C18.0154 11.2294 18.4447 11.0045 18.8797 10.8458C20.1538 10.3857 21.4029 9.85823 23.0492 10.106C25.0278 10.4051 26.4321 11.2842 27.2998 12.6406C25.626 13.7058 24.3028 15.311 24.5288 18.0522C24.7298 20.5423 26.1775 21.9991 27.9859 22.8577Z" fill="black"/>
</g>
<defs>
<clipPath id="clip0_2767_3128">
<rect width="26" height="26" fill="white" transform="translate(4.38672 3.77295)"/>
</clipPath>
</defs>
</svg>