<svg width="22" height="27" viewBox="0 0 22 27" fill="none" xmlns="http://www.w3.org/2000/svg">
<path d="M16.3904 0.772949H16.5754C16.7238 2.60652 16.0239 3.97657 15.1734 4.96871C14.3388 5.954 13.1959 6.9096 11.3475 6.76461C11.2242 4.95729 11.9252 3.68886 12.7747 2.699C13.5624 1.77651 15.0067 0.955622 16.3904 0.772949ZM21.9859 19.8577V19.909C21.4664 21.4823 20.7255 22.8307 19.8212 24.082C18.9958 25.218 17.9842 26.7467 16.1781 26.7467C14.6174 26.7467 13.5807 25.7431 11.9812 25.7157C10.2892 25.6883 9.35868 26.5549 7.81168 26.7729H7.28421C6.14822 26.6085 5.23143 25.7089 4.56353 24.8983C2.59409 22.503 1.0722 19.409 0.789062 15.4495V14.2861C0.908941 11.4524 2.28584 9.14848 4.11598 8.0319C5.08187 7.43821 6.40967 6.93244 7.88817 7.15849C8.52182 7.25668 9.16916 7.4736 9.73659 7.68824C10.2743 7.89489 10.9468 8.26138 11.5839 8.24197C12.0154 8.22941 12.4447 8.0045 12.8797 7.8458C14.1538 7.38569 15.4029 6.85823 17.0492 7.10598C19.0278 7.4051 20.4321 8.28421 21.2998 9.64056C19.626 10.7058 18.3028 12.311 18.5288 15.0522C18.7298 17.5423 20.1775 18.9991 21.9859 19.8577Z" fill="black"/>
</svg>
