<svg width="217" height="229" viewBox="0 0 217 229" fill="none" xmlns="http://www.w3.org/2000/svg">
<g filter="url(#filter0_d_2684_13490)">
<path fill-rule="evenodd" clip-rule="evenodd" d="M111.966 179.433C116.112 172.246 123.403 167.637 131.083 164.496C152.969 155.548 168.389 134.043 168.389 108.937C168.389 75.7998 141.526 48.9369 108.389 48.9369C75.2516 48.9369 48.3887 75.7998 48.3887 108.937C48.3887 134.941 64.9315 157.081 88.0674 165.408C95.616 168.125 102.76 172.484 106.769 179.433C107.923 181.434 110.811 181.434 111.966 179.433Z" fill="white"/>
</g>
<rect x="58.4526" y="58.4659" width="101.25" height="101.25" rx="50.6248" fill="url(#paint0_linear_2684_13490)"/>
<path d="M123.396 118.359C122.965 115.451 121.496 112.792 119.257 110.865C117.018 108.938 114.157 107.871 111.193 107.857H108.43C105.466 107.871 102.604 108.938 100.365 110.865C98.1262 112.792 96.6577 115.451 96.2261 118.359L94.9018 127.543C94.8595 127.84 94.8875 128.142 94.9835 128.426C95.0795 128.711 95.2409 128.969 95.4549 129.181C95.9742 129.696 99.1602 132.322 109.814 132.322C120.467 132.322 123.646 129.706 124.173 129.181C124.387 128.969 124.548 128.711 124.644 128.426C124.74 128.142 124.768 127.84 124.726 127.543L123.396 118.359ZM98.2799 109.274C95.7704 111.568 94.1377 114.652 93.6581 118.004L92.6973 124.597C84.9856 124.545 82.6487 121.764 82.2592 121.197C82.1087 120.992 82.0012 120.758 81.9433 120.51C81.8853 120.262 81.8779 120.006 81.9217 119.755L82.4929 116.562C82.7905 114.893 83.4895 113.32 84.5306 111.976C85.5717 110.632 86.9242 109.557 88.4734 108.842C90.0226 108.126 91.7229 107.792 93.43 107.868C95.1371 107.943 96.8008 108.425 98.2799 109.274ZM137.696 119.755C137.739 120.006 137.732 120.262 137.674 120.51C137.616 120.758 137.509 120.992 137.358 121.197C136.969 121.764 134.632 124.545 126.92 124.597L125.959 118.004C125.48 114.652 123.847 111.568 121.337 109.274C122.816 108.425 124.48 107.943 126.187 107.868C127.894 107.792 129.595 108.126 131.144 108.842C132.693 109.557 134.046 110.632 135.087 111.976C136.128 113.32 136.827 114.893 137.124 116.562L137.696 119.755ZM98.7213 103.608C98.0677 104.528 97.2 105.277 96.192 105.793C95.1839 106.308 94.0652 106.575 92.931 106.57C91.7996 106.57 90.6844 106.303 89.6772 105.792C88.6701 105.28 87.7999 104.539 87.1384 103.629C86.4768 102.718 86.0428 101.665 85.8722 100.556C85.7016 99.4466 85.7992 98.3129 86.157 97.2483C86.5147 96.1838 87.1225 95.2188 87.9301 94.4329C88.7377 93.6469 89.722 93.0626 90.802 92.728C91.8819 92.3934 93.0266 92.3182 94.1417 92.5084C95.2567 92.6987 96.3102 93.149 97.2153 93.8223C96.955 94.832 96.8241 95.8703 96.8259 96.9126C96.8278 99.2745 97.4835 101.591 98.7213 103.608ZM133.827 99.4879C133.827 100.418 133.643 101.339 133.285 102.199C132.926 103.058 132.4 103.839 131.737 104.497C131.074 105.155 130.286 105.676 129.42 106.032C128.553 106.388 127.624 106.571 126.686 106.57C125.552 106.575 124.433 106.308 123.425 105.793C122.417 105.277 121.549 104.528 120.896 103.608C122.134 101.591 122.789 99.2745 122.791 96.9126C122.793 95.8703 122.662 94.832 122.402 93.8223C123.463 93.0332 124.724 92.5526 126.045 92.4345C127.366 92.3164 128.693 92.5654 129.88 93.1536C131.066 93.7417 132.063 94.6459 132.76 95.7646C133.457 96.8834 133.827 98.1727 133.827 99.4879Z" fill="white"/>
<path d="M109.808 106.57C115.186 106.57 119.545 102.246 119.545 96.9126C119.545 91.5791 115.186 87.2554 109.808 87.2554C104.431 87.2554 100.071 91.5791 100.071 96.9126C100.071 102.246 104.431 106.57 109.808 106.57Z" fill="white"/>
<defs>
<filter id="filter0_d_2684_13490" x="0.38866" y="0.936878" width="216" height="227.997" filterUnits="userSpaceOnUse" color-interpolation-filters="sRGB">
<feFlood flood-opacity="0" result="BackgroundImageFix"/>
<feColorMatrix in="SourceAlpha" type="matrix" values="0 0 0 0 0 0 0 0 0 0 0 0 0 0 0 0 0 0 127 0" result="hardAlpha"/>
<feOffset/>
<feGaussianBlur stdDeviation="24"/>
<feComposite in2="hardAlpha" operator="out"/>
<feColorMatrix type="matrix" values="0 0 0 0 0.258824 0 0 0 0 0.278431 0 0 0 0 0.298039 0 0 0 0.3 0"/>
<feBlend mode="normal" in2="BackgroundImageFix" result="effect1_dropShadow_2684_13490"/>
<feBlend mode="normal" in="SourceGraphic" in2="effect1_dropShadow_2684_13490" result="shape"/>
</filter>
<linearGradient id="paint0_linear_2684_13490" x1="154.753" y1="149.028" x2="41.4152" y2="113.073" gradientUnits="userSpaceOnUse">
<stop stop-color="#7B3EFF"/>
<stop offset="1" stop-color="#B67DFF"/>
</linearGradient>
</defs>
</svg>
