<svg width="20" height="20" viewBox="0 0 20 20" fill="none" xmlns="http://www.w3.org/2000/svg">
<path d="M6 1.66667H8.16667C10.8333 1.66667 12.5 3.33333 12.5 6V9.375H7.29167C6.95 9.375 6.66667 9.65833 6.66667 10C6.66667 10.3417 6.95 10.625 7.29167 10.625H12.5V14C12.5 16.6667 10.8333 18.3333 8.16667 18.3333H6.00833C3.34167 18.3333 1.675 16.6667 1.675 14V6C1.66667 3.33333 3.33333 1.66667 6 1.66667Z" fill="url(#paint0_linear_2684_14743)"/>
<path d="M16.1998 9.375L14.4748 7.65C14.3498 7.525 14.2915 7.36666 14.2915 7.20833C14.2915 7.05 14.3498 6.88333 14.4748 6.76666C14.7165 6.525 15.1165 6.525 15.3581 6.76666L18.1498 9.55833C18.3915 9.8 18.3915 10.2 18.1498 10.4417L15.3581 13.2333C15.1165 13.475 14.7165 13.475 14.4748 13.2333C14.2331 12.9917 14.2331 12.5917 14.4748 12.35L16.1998 10.625H12.4998V9.375H16.1998Z" fill="url(#paint1_linear_2684_14743)"/>
<defs>
<linearGradient id="paint0_linear_2684_14743" x1="1.75824" y1="13.7608" x2="13.258" y2="6.80546" gradientUnits="userSpaceOnUse">
<stop stop-color="#B17EFF"/>
<stop offset="0.9999" stop-color="#DAC1FF"/>
</linearGradient>
<linearGradient id="paint1_linear_2684_14743" x1="12.5447" y1="11.541" x2="17.7282" y2="7.41935" gradientUnits="userSpaceOnUse">
<stop stop-color="#B17EFF"/>
<stop offset="0.9999" stop-color="#DAC1FF"/>
</linearGradient>
</defs>
</svg>
