<svg width="38" height="38" viewBox="0 0 38 38" fill="none" xmlns="http://www.w3.org/2000/svg">
<path d="M14.6662 3.77771C10.5907 3.77771 7.27734 7.09104 7.27734 11.1666C7.27734 15.1644 10.404 18.3999 14.4796 18.5399C14.604 18.5244 14.7285 18.5244 14.8218 18.5399C14.8529 18.5399 14.8685 18.5399 14.8996 18.5399C14.9151 18.5399 14.9151 18.5399 14.9307 18.5399C18.9129 18.3999 22.0396 15.1644 22.0551 11.1666C22.0551 7.09104 18.7418 3.77771 14.6662 3.77771Z" fill="#D5BBFF"/>
<path d="M22.5687 22.6778C18.2287 19.7845 11.1509 19.7845 6.77978 22.6778C4.80422 24 3.71533 25.7889 3.71533 27.7023C3.71533 29.6156 4.80422 31.3889 6.76422 32.6956C8.942 34.1578 11.8042 34.8889 14.6664 34.8889C17.5287 34.8889 20.3909 34.1578 22.5687 32.6956C24.5287 31.3734 25.6176 29.6 25.6176 27.6711C25.602 25.7578 24.5287 23.9845 22.5687 22.6778Z" fill="#D5BBFF"/>
<path d="M31.7624 12.0844C32.0113 15.1022 29.8646 17.7466 26.8935 18.1044C26.8779 18.1044 26.8779 18.1044 26.8624 18.1044H26.8157C26.7224 18.1044 26.6291 18.1044 26.5513 18.1355C25.0424 18.2133 23.6579 17.7311 22.6157 16.8444C24.2179 15.4133 25.1357 13.2666 24.9491 10.9333C24.8402 9.6733 24.4046 8.52219 23.7513 7.54219C24.3424 7.24663 25.0268 7.05997 25.7268 6.99774C28.7757 6.7333 31.4979 9.00441 31.7624 12.0844Z" fill="#D5BBFF"/>
<path d="M34.8732 26.4733C34.7487 27.9822 33.7843 29.2889 32.1665 30.1755C30.6109 31.0311 28.6509 31.4355 26.7065 31.3889C27.8265 30.3778 28.4798 29.1178 28.6043 27.78C28.7598 25.8511 27.842 24 26.0065 22.5222C24.9643 21.6978 23.7509 21.0444 22.4287 20.5622C25.8665 19.5666 30.1909 20.2355 32.8509 22.3822C34.282 23.5333 35.0132 24.98 34.8732 26.4733Z" fill="#D5BBFF"/>
</svg>
